<?xml version="1.0" encoding="UTF-8" standalone="no"?>
<!DOCTYPE svg PUBLIC "-//W3C//DTD SVG 1.1//EN"
 "http://www.w3.org/Graphics/SVG/1.1/DTD/svg11.dtd">
<!-- Generated by graphviz version 14.0.2 (0)
 -->
<!-- Title: TypeChart Pages: 1 -->
<svg width="984pt" height="1204pt"
 viewBox="0.00 0.00 984.00 1204.00" xmlns="http://www.w3.org/2000/svg" xmlns:xlink="http://www.w3.org/1999/xlink">
<g id="graph0" class="graph" transform="scale(1 1) rotate(0) translate(4 1200.25)">
<title>TypeChart</title>
<polygon fill="white" stroke="none" points="-4,4 -4,-1200.25 979.62,-1200.25 979.62,4 -4,4"/>
<!-- Normal -->
<g id="node1" class="node">
<title>Normal</title>
<path fill="#c06040" stroke="black" d="M69.25,-1103.73C69.25,-1105.53 53.73,-1107 34.62,-1107 15.52,-1107 0,-1105.53 0,-1103.73 0,-1103.73 0,-1074.27 0,-1074.27 0,-1072.47 15.52,-1071 34.62,-1071 53.73,-1071 69.25,-1072.47 69.25,-1074.27 69.25,-1074.27 69.25,-1103.73 69.25,-1103.73"/>
<path fill="none" stroke="black" d="M69.25,-1103.73C69.25,-1101.92 53.73,-1100.45 34.62,-1100.45 15.52,-1100.45 0,-1101.92 0,-1103.73"/>
<text xml:space="preserve" text-anchor="middle" x="34.62" y="-1084.33" font-family="Times,serif" font-size="14.00">Normal</text>
</g>
<!-- Fire -->
<g id="node2" class="node">
<title>Fire</title>
<path fill="#e00000" stroke="black" d="M633.62,-746.73C633.62,-748.53 621.52,-750 606.62,-750 591.73,-750 579.62,-748.53 579.62,-746.73 579.62,-746.73 579.62,-717.27 579.62,-717.27 579.62,-715.47 591.73,-714 606.62,-714 621.52,-714 633.62,-715.47 633.62,-717.27 633.62,-717.27 633.62,-746.73 633.62,-746.73"/>
<path fill="none" stroke="black" d="M633.62,-746.73C633.62,-744.92 621.52,-743.45 606.62,-743.45 591.73,-743.45 579.62,-744.92 579.62,-746.73"/>
<text xml:space="preserve" text-anchor="middle" x="606.62" y="-727.33" font-family="Times,serif" font-size="14.00">Fire</text>
</g>
<!-- Grass -->
<g id="node3" class="node">
<title>Grass</title>
<path fill="#00e000" stroke="black" d="M534.25,-1014.48C534.25,-1016.28 521.42,-1017.75 505.62,-1017.75 489.83,-1017.75 477,-1016.28 477,-1014.48 477,-1014.48 477,-985.02 477,-985.02 477,-983.22 489.83,-981.75 505.62,-981.75 521.42,-981.75 534.25,-983.22 534.25,-985.02 534.25,-985.02 534.25,-1014.48 534.25,-1014.48"/>
<path fill="none" stroke="black" d="M534.25,-1014.48C534.25,-1012.67 521.42,-1011.2 505.62,-1011.2 489.83,-1011.2 477,-1012.67 477,-1014.48"/>
<text xml:space="preserve" text-anchor="middle" x="505.62" y="-995.08" font-family="Times,serif" font-size="14.00">Grass</text>
</g>
<!-- Fire&#45;&gt;Grass -->
<g id="edge1" class="edge">
<title>Fire&#45;&gt;Grass</title>
<path fill="none" stroke="#e00000" d="M609.29,-750.15C611.92,-771.65 614.21,-809.33 603.62,-839.25 585.63,-890.12 549.76,-942.1 526.76,-972.35"/>
<polygon fill="#e00000" stroke="#e00000" points="524.06,-970.12 520.71,-980.18 529.6,-974.4 524.06,-970.12"/>
<text xml:space="preserve" text-anchor="middle" x="602.52" y="-861.2" font-family="Times,serif" font-size="14.00">&gt;</text>
</g>
<!-- Ice -->
<g id="node6" class="node">
<title>Ice</title>
<path fill="#40f0f0" stroke="black" d="M684.62,-1103.73C684.62,-1105.53 672.52,-1107 657.62,-1107 642.73,-1107 630.62,-1105.53 630.62,-1103.73 630.62,-1103.73 630.62,-1074.27 630.62,-1074.27 630.62,-1072.47 642.73,-1071 657.62,-1071 672.52,-1071 684.62,-1072.47 684.62,-1074.27 684.62,-1074.27 684.62,-1103.73 684.62,-1103.73"/>
<path fill="none" stroke="black" d="M684.62,-1103.73C684.62,-1101.92 672.52,-1100.45 657.62,-1100.45 642.73,-1100.45 630.62,-1101.92 630.62,-1103.73"/>
<text xml:space="preserve" text-anchor="middle" x="657.62" y="-1084.33" font-family="Times,serif" font-size="14.00">Ice</text>
</g>
<!-- Fire&#45;&gt;Ice -->
<g id="edge2" class="edge">
<title>Fire&#45;&gt;Ice</title>
<path fill="none" stroke="#e00000" d="M620.97,-750.11C639.01,-772.87 669.03,-815.13 680.62,-857.25 700.15,-928.18 680.08,-1015.43 666.99,-1059.55"/>
<polygon fill="#e00000" stroke="#e00000" points="663.65,-1058.52 664.05,-1069.11 670.34,-1060.58 663.65,-1058.52"/>
<text xml:space="preserve" text-anchor="middle" x="694.76" y="-905.83" font-family="Times,serif" font-size="14.00">&gt;</text>
</g>
<!-- Bug -->
<g id="node12" class="node">
<title>Bug</title>
<path fill="#008040" stroke="black" d="M664.62,-389.73C664.62,-391.53 652.52,-393 637.62,-393 622.73,-393 610.62,-391.53 610.62,-389.73 610.62,-389.73 610.62,-360.27 610.62,-360.27 610.62,-358.47 622.73,-357 637.62,-357 652.52,-357 664.62,-358.47 664.62,-360.27 664.62,-360.27 664.62,-389.73 664.62,-389.73"/>
<path fill="none" stroke="black" d="M664.62,-389.73C664.62,-387.92 652.52,-386.45 637.62,-386.45 622.73,-386.45 610.62,-387.92 610.62,-389.73"/>
<text xml:space="preserve" text-anchor="middle" x="637.62" y="-370.32" font-family="Times,serif" font-size="14.00">Bug</text>
</g>
<!-- Fire&#45;&gt;Bug -->
<g id="edge3" class="edge">
<title>Fire&#45;&gt;Bug</title>
<path fill="none" stroke="#e00000" d="M611.05,-713.75C615.16,-696.24 620.62,-668.3 620.62,-643.75 620.62,-643.75 620.62,-643.75 620.62,-463.25 620.62,-443.19 625.01,-421 629.32,-404.02"/>
<polygon fill="#e00000" stroke="#e00000" points="632.63,-405.22 631.85,-394.65 625.87,-403.39 632.63,-405.22"/>
<text xml:space="preserve" text-anchor="middle" x="626.62" y="-548.83" font-family="Times,serif" font-size="14.00">&gt;</text>
</g>
<!-- Steel -->
<g id="node17" class="node">
<title>Steel</title>
<path fill="#808080" stroke="black" d="M772.62,-657.48C772.62,-659.28 760.52,-660.75 745.62,-660.75 730.73,-660.75 718.62,-659.28 718.62,-657.48 718.62,-657.48 718.62,-628.02 718.62,-628.02 718.62,-626.22 730.73,-624.75 745.62,-624.75 760.52,-624.75 772.62,-626.22 772.62,-628.02 772.62,-628.02 772.62,-657.48 772.62,-657.48"/>
<path fill="none" stroke="black" d="M772.62,-657.48C772.62,-655.67 760.52,-654.2 745.62,-654.2 730.73,-654.2 718.62,-655.67 718.62,-657.48"/>
<text xml:space="preserve" text-anchor="middle" x="745.62" y="-638.08" font-family="Times,serif" font-size="14.00">Steel</text>
</g>
<!-- Fire&#45;&gt;Steel -->
<g id="edge4" class="edge">
<title>Fire&#45;&gt;Steel</title>
<path fill="none" stroke="#e00000" d="M619.25,-713.53C628.09,-702.33 640.77,-688.17 654.62,-678.75 670.58,-667.89 690.38,-659.76 707.43,-654.09"/>
<polygon fill="#e00000" stroke="#e00000" points="708.23,-657.5 716.72,-651.16 706.13,-650.82 708.23,-657.5"/>
<text xml:space="preserve" text-anchor="middle" x="660.62" y="-682.7" font-family="Times,serif" font-size="14.00">&gt;</text>
</g>
<!-- Water -->
<g id="node4" class="node">
<title>Water</title>
<path fill="#0000e0" stroke="black" d="M486.62,-925.23C486.62,-927.03 473.63,-928.5 457.62,-928.5 441.62,-928.5 428.62,-927.03 428.62,-925.23 428.62,-925.23 428.62,-895.77 428.62,-895.77 428.62,-893.97 441.62,-892.5 457.62,-892.5 473.63,-892.5 486.62,-893.97 486.62,-895.77 486.62,-895.77 486.62,-925.23 486.62,-925.23"/>
<path fill="none" stroke="black" d="M486.62,-925.23C486.62,-923.42 473.63,-921.95 457.62,-921.95 441.62,-921.95 428.62,-923.42 428.62,-925.23"/>
<text xml:space="preserve" text-anchor="middle" x="457.62" y="-905.83" font-family="Times,serif" font-size="14.00">Water</text>
</g>
<!-- Grass&#45;&gt;Water -->
<g id="edge5" class="edge">
<title>Grass&#45;&gt;Water</title>
<path fill="none" stroke="#00e000" d="M496.14,-981.51C489.44,-969.32 480.31,-952.73 472.62,-938.76"/>
<polygon fill="#00e000" stroke="#00e000" points="475.7,-937.1 467.82,-930.03 469.57,-940.48 475.7,-937.1"/>
<text xml:space="preserve" text-anchor="middle" x="491.92" y="-950.45" font-family="Times,serif" font-size="14.00">&gt;</text>
</g>
<!-- Ground -->
<g id="node9" class="node">
<title>Ground</title>
<path fill="#806030" stroke="black" d="M557.25,-835.98C557.25,-837.78 541.73,-839.25 522.62,-839.25 503.52,-839.25 488,-837.78 488,-835.98 488,-835.98 488,-806.52 488,-806.52 488,-804.72 503.52,-803.25 522.62,-803.25 541.73,-803.25 557.25,-804.72 557.25,-806.52 557.25,-806.52 557.25,-835.98 557.25,-835.98"/>
<path fill="none" stroke="black" d="M557.25,-835.98C557.25,-834.17 541.73,-832.7 522.62,-832.7 503.52,-832.7 488,-834.17 488,-835.98"/>
<text xml:space="preserve" text-anchor="middle" x="522.62" y="-816.58" font-family="Times,serif" font-size="14.00">Ground</text>
</g>
<!-- Grass&#45;&gt;Ground -->
<g id="edge6" class="edge">
<title>Grass&#45;&gt;Ground</title>
<path fill="none" stroke="#00e000" d="M507.29,-981.51C510.22,-951.06 516.34,-887.51 519.9,-850.55"/>
<polygon fill="#00e000" stroke="#00e000" points="523.34,-851.36 520.81,-841.07 516.37,-850.69 523.34,-851.36"/>
<text xml:space="preserve" text-anchor="middle" x="521.81" y="-905.83" font-family="Times,serif" font-size="14.00">&gt;</text>
</g>
<!-- Rock -->
<g id="node13" class="node">
<title>Rock</title>
<path fill="#404040" stroke="black" d="M449.62,-568.23C449.62,-570.03 437.52,-571.5 422.62,-571.5 407.73,-571.5 395.62,-570.03 395.62,-568.23 395.62,-568.23 395.62,-538.77 395.62,-538.77 395.62,-536.97 407.73,-535.5 422.62,-535.5 437.52,-535.5 449.62,-536.97 449.62,-538.77 449.62,-538.77 449.62,-568.23 449.62,-568.23"/>
<path fill="none" stroke="black" d="M449.62,-568.23C449.62,-566.42 437.52,-564.95 422.62,-564.95 407.73,-564.95 395.62,-566.42 395.62,-568.23"/>
<text xml:space="preserve" text-anchor="middle" x="422.62" y="-548.83" font-family="Times,serif" font-size="14.00">Rock</text>
</g>
<!-- Grass&#45;&gt;Rock -->
<g id="edge7" class="edge">
<title>Grass&#45;&gt;Rock</title>
<path fill="none" stroke="#00e000" d="M477.24,-982.79C457.98,-970.45 433.57,-951.61 419.62,-928.5 349.77,-812.7 383.24,-758.73 401.62,-624.75 403.8,-608.93 404.08,-604.81 408.62,-589.5 409.31,-587.2 410.08,-584.83 410.91,-582.48"/>
<polygon fill="#00e000" stroke="#00e000" points="414.18,-583.73 414.46,-573.14 407.64,-581.24 414.18,-583.73"/>
<text xml:space="preserve" text-anchor="middle" x="384.49" y="-771.95" font-family="Times,serif" font-size="14.00">&gt;</text>
</g>
<!-- Water&#45;&gt;Fire -->
<g id="edge8" class="edge">
<title>Water&#45;&gt;Fire</title>
<path fill="none" stroke="#0000e0" d="M486.82,-897.09C511.19,-885.39 545.27,-865.7 566.62,-839.25 585.08,-816.4 595.6,-784.14 601.17,-761.18"/>
<polygon fill="#0000e0" stroke="#0000e0" points="604.55,-762.12 603.32,-751.6 597.72,-760.59 604.55,-762.12"/>
<text xml:space="preserve" text-anchor="middle" x="593.28" y="-816.58" font-family="Times,serif" font-size="14.00">&gt;</text>
</g>
<!-- Water&#45;&gt;Ground -->
<g id="edge9" class="edge">
<title>Water&#45;&gt;Ground</title>
<path fill="none" stroke="#0000e0" d="M470.47,-892.26C479.81,-879.71 492.64,-862.5 503.23,-848.28"/>
<polygon fill="#0000e0" stroke="#0000e0" points="505.74,-850.78 508.91,-840.67 500.12,-846.59 505.74,-850.78"/>
<text xml:space="preserve" text-anchor="middle" x="501.95" y="-861.2" font-family="Times,serif" font-size="14.00">&gt;</text>
</g>
<!-- Water&#45;&gt;Rock -->
<g id="edge10" class="edge">
<title>Water&#45;&gt;Rock</title>
<path fill="none" stroke="#0000e0" d="M448.48,-892C436.75,-868.49 417.04,-825.03 409.62,-785.25 396.21,-713.32 408.51,-626.78 416.69,-582.94"/>
<polygon fill="#0000e0" stroke="#0000e0" points="420.1,-583.73 418.57,-573.24 413.23,-582.39 420.1,-583.73"/>
<text xml:space="preserve" text-anchor="middle" x="410.95" y="-727.33" font-family="Times,serif" font-size="14.00">&gt;</text>
</g>
<!-- Electric -->
<g id="node5" class="node">
<title>Electric</title>
<path fill="#f0f000" stroke="black" d="M561.38,-746.73C561.38,-748.53 545.35,-750 525.62,-750 505.9,-750 489.88,-748.53 489.88,-746.73 489.88,-746.73 489.88,-717.27 489.88,-717.27 489.88,-715.47 505.9,-714 525.62,-714 545.35,-714 561.38,-715.47 561.38,-717.27 561.38,-717.27 561.38,-746.73 561.38,-746.73"/>
<path fill="none" stroke="black" d="M561.38,-746.73C561.38,-744.92 545.35,-743.45 525.62,-743.45 505.9,-743.45 489.88,-744.92 489.88,-746.73"/>
<text xml:space="preserve" text-anchor="middle" x="525.62" y="-727.33" font-family="Times,serif" font-size="14.00">Electric</text>
</g>
<!-- Electric&#45;&gt;Water -->
<g id="edge11" class="edge">
<title>Electric&#45;&gt;Water</title>
<path fill="none" stroke="#f0f000" d="M505.79,-750.23C492.22,-763.29 475.19,-782.49 466.62,-803.25 456.37,-828.08 454.85,-858.91 455.46,-880.95"/>
<polygon fill="#f0f000" stroke="#f0f000" points="451.95,-880.85 455.9,-890.68 458.94,-880.53 451.95,-880.85"/>
<text xml:space="preserve" text-anchor="middle" x="472.62" y="-816.58" font-family="Times,serif" font-size="14.00">&gt;</text>
</g>
<!-- Flying -->
<g id="node10" class="node">
<title>Flying</title>
<path fill="#c08060" stroke="black" d="M453.12,-478.98C453.12,-480.78 439.45,-482.25 422.62,-482.25 405.8,-482.25 392.12,-480.78 392.12,-478.98 392.12,-478.98 392.12,-449.52 392.12,-449.52 392.12,-447.72 405.8,-446.25 422.62,-446.25 439.45,-446.25 453.12,-447.72 453.12,-449.52 453.12,-449.52 453.12,-478.98 453.12,-478.98"/>
<path fill="none" stroke="black" d="M453.12,-478.98C453.12,-477.17 439.45,-475.7 422.62,-475.7 405.8,-475.7 392.12,-477.17 392.12,-478.98"/>
<text xml:space="preserve" text-anchor="middle" x="422.62" y="-459.57" font-family="Times,serif" font-size="14.00">Flying</text>
</g>
<!-- Electric&#45;&gt;Flying -->
<g id="edge12" class="edge">
<title>Electric&#45;&gt;Flying</title>
<path fill="none" stroke="#f0f000" d="M537.11,-713.68C545.47,-699.97 556.1,-679.98 560.62,-660.75 567.92,-629.73 568.34,-617.22 552.62,-589.5 528.87,-547.59 486.53,-511.06 456.63,-488.65"/>
<polygon fill="#f0f000" stroke="#f0f000" points="458.75,-485.87 448.62,-482.78 454.61,-491.52 458.75,-485.87"/>
<text xml:space="preserve" text-anchor="middle" x="567.04" y="-593.45" font-family="Times,serif" font-size="14.00">&gt;</text>
</g>
<!-- Ice&#45;&gt;Grass -->
<g id="edge13" class="edge">
<title>Ice&#45;&gt;Grass</title>
<path fill="none" stroke="#40f0f0" d="M630.33,-1076.78C615.6,-1070.39 597.28,-1061.9 581.62,-1053 566.39,-1044.34 550.29,-1033.54 536.85,-1024"/>
<polygon fill="#40f0f0" stroke="#40f0f0" points="538.98,-1021.22 528.82,-1018.22 534.89,-1026.9 538.98,-1021.22"/>
<text xml:space="preserve" text-anchor="middle" x="587.62" y="-1039.7" font-family="Times,serif" font-size="14.00">&gt;</text>
</g>
<!-- Ice&#45;&gt;Ground -->
<g id="edge14" class="edge">
<title>Ice&#45;&gt;Ground</title>
<path fill="none" stroke="#40f0f0" d="M648.77,-1070.56C625.78,-1025.31 564.09,-903.87 536.4,-849.37"/>
<polygon fill="#40f0f0" stroke="#40f0f0" points="539.67,-848.09 532.03,-840.75 533.43,-851.26 539.67,-848.09"/>
<text xml:space="preserve" text-anchor="middle" x="599.24" y="-950.45" font-family="Times,serif" font-size="14.00">&gt;</text>
</g>
<!-- Ice&#45;&gt;Flying -->
<g id="edge15" class="edge">
<title>Ice&#45;&gt;Flying</title>
<path fill="none" stroke="#40f0f0" d="M630.4,-1086.34C523.41,-1079.47 137.62,-1051.21 137.62,-1000.75 137.62,-1000.75 137.62,-1000.75 137.62,-552.5 137.62,-502.25 301.63,-478.03 380.82,-469.26"/>
<polygon fill="#40f0f0" stroke="#40f0f0" points="380.78,-472.79 390.35,-468.24 380.03,-465.83 380.78,-472.79"/>
<text xml:space="preserve" text-anchor="middle" x="143.62" y="-771.95" font-family="Times,serif" font-size="14.00">&gt;</text>
</g>
<!-- Dragon -->
<g id="node15" class="node">
<title>Dragon</title>
<path fill="#c0e000" stroke="black" d="M784.88,-478.98C784.88,-480.78 769.52,-482.25 750.62,-482.25 731.73,-482.25 716.38,-480.78 716.38,-478.98 716.38,-478.98 716.38,-449.52 716.38,-449.52 716.38,-447.72 731.73,-446.25 750.62,-446.25 769.52,-446.25 784.88,-447.72 784.88,-449.52 784.88,-449.52 784.88,-478.98 784.88,-478.98"/>
<path fill="none" stroke="black" d="M784.88,-478.98C784.88,-477.17 769.52,-475.7 750.62,-475.7 731.73,-475.7 716.38,-477.17 716.38,-478.98"/>
<text xml:space="preserve" text-anchor="middle" x="750.62" y="-459.57" font-family="Times,serif" font-size="14.00">Dragon</text>
</g>
<!-- Ice&#45;&gt;Dragon -->
<g id="edge16" class="edge">
<title>Ice&#45;&gt;Dragon</title>
<path fill="none" stroke="#40f0f0" d="M684.8,-1081.76C702.65,-1076.53 725.58,-1067.52 741.62,-1053 754.82,-1041.06 755.77,-1034.87 760.62,-1017.75 812.63,-834.52 809.52,-777.1 776.62,-589.5 770.81,-556.33 762.67,-518.49 757.06,-493.37"/>
<polygon fill="#40f0f0" stroke="#40f0f0" points="760.55,-492.93 754.93,-483.94 753.72,-494.47 760.55,-492.93"/>
<text xml:space="preserve" text-anchor="middle" x="806.61" y="-771.95" font-family="Times,serif" font-size="14.00">&gt;</text>
</g>
<!-- Fighting -->
<g id="node7" class="node">
<title>Fighting</title>
<path fill="#806030" stroke="black" d="M826,-1192.98C826,-1194.78 808.8,-1196.25 787.62,-1196.25 766.45,-1196.25 749.25,-1194.78 749.25,-1192.98 749.25,-1192.98 749.25,-1163.52 749.25,-1163.52 749.25,-1161.72 766.45,-1160.25 787.62,-1160.25 808.8,-1160.25 826,-1161.72 826,-1163.52 826,-1163.52 826,-1192.98 826,-1192.98"/>
<path fill="none" stroke="black" d="M826,-1192.98C826,-1191.17 808.8,-1189.7 787.62,-1189.7 766.45,-1189.7 749.25,-1191.17 749.25,-1192.98"/>
<text xml:space="preserve" text-anchor="middle" x="787.62" y="-1173.58" font-family="Times,serif" font-size="14.00">Fighting</text>
</g>
<!-- Fighting&#45;&gt;Normal -->
<g id="edge17" class="edge">
<title>Fighting&#45;&gt;Normal</title>
<path fill="none" stroke="#806030" d="M748.91,-1177.32C608.49,-1177.32 131.09,-1174.87 71.62,-1142.25 61.35,-1136.62 53.27,-1126.77 47.31,-1117.12"/>
<polygon fill="#806030" stroke="#806030" points="50.52,-1115.7 42.61,-1108.66 44.41,-1119.1 50.52,-1115.7"/>
<text xml:space="preserve" text-anchor="middle" x="77.62" y="-1128.95" font-family="Times,serif" font-size="14.00">&gt;</text>
</g>
<!-- Fighting&#45;&gt;Ice -->
<g id="edge18" class="edge">
<title>Fighting&#45;&gt;Ice</title>
<path fill="none" stroke="#806030" d="M762.25,-1160.22C741.91,-1146.57 713.2,-1127.3 691,-1112.4"/>
<polygon fill="#806030" stroke="#806030" points="693.13,-1109.61 682.87,-1106.95 689.23,-1115.43 693.13,-1109.61"/>
<text xml:space="preserve" text-anchor="middle" x="740.27" y="-1128.95" font-family="Times,serif" font-size="14.00">&gt;</text>
</g>
<!-- Fighting&#45;&gt;Rock -->
<g id="edge19" class="edge">
<title>Fighting&#45;&gt;Rock</title>
<path fill="none" stroke="#806030" d="M748.88,-1175.83C614.35,-1170.38 175.62,-1148.16 175.62,-1090 175.62,-1090 175.62,-1090 175.62,-641.75 175.62,-598.11 314.42,-570.87 383.92,-559.96"/>
<polygon fill="#806030" stroke="#806030" points="384.39,-563.43 393.75,-558.46 383.34,-556.51 384.39,-563.43"/>
<text xml:space="preserve" text-anchor="middle" x="181.62" y="-861.2" font-family="Times,serif" font-size="14.00">&gt;</text>
</g>
<!-- Dark -->
<g id="node16" class="node">
<title>Dark</title>
<path fill="#202020" stroke="black" d="M834.62,-300.48C834.62,-302.28 822.52,-303.75 807.62,-303.75 792.73,-303.75 780.62,-302.28 780.62,-300.48 780.62,-300.48 780.62,-271.02 780.62,-271.02 780.62,-269.22 792.73,-267.75 807.62,-267.75 822.52,-267.75 834.62,-269.22 834.62,-271.02 834.62,-271.02 834.62,-300.48 834.62,-300.48"/>
<path fill="none" stroke="black" d="M834.62,-300.48C834.62,-298.67 822.52,-297.2 807.62,-297.2 792.73,-297.2 780.62,-298.67 780.62,-300.48"/>
<text xml:space="preserve" text-anchor="middle" x="807.62" y="-281.07" font-family="Times,serif" font-size="14.00">Dark</text>
</g>
<!-- Fighting&#45;&gt;Dark -->
<g id="edge20" class="edge">
<title>Fighting&#45;&gt;Dark</title>
<path fill="none" stroke="#806030" d="M826.28,-1168.71C864.6,-1157.71 917.62,-1134.44 917.62,-1090 917.62,-1090 917.62,-1090 917.62,-552.5 917.62,-442.42 881.91,-417.52 827.62,-321.75 826.21,-319.25 824.73,-316.64 823.24,-314.04"/>
<polygon fill="#806030" stroke="#806030" points="826.37,-312.45 818.37,-305.5 820.29,-315.92 826.37,-312.45"/>
<text xml:space="preserve" text-anchor="middle" x="923.62" y="-727.33" font-family="Times,serif" font-size="14.00">&gt;</text>
</g>
<!-- Fighting&#45;&gt;Steel -->
<g id="edge21" class="edge">
<title>Fighting&#45;&gt;Steel</title>
<path fill="none" stroke="#806030" d="M802.52,-1159.83C815.29,-1143.07 831.62,-1116.46 831.62,-1090 831.62,-1090 831.62,-1090 831.62,-954.12 831.62,-870.72 831.92,-847.79 807.62,-768 796.87,-732.69 776.8,-695.16 762.41,-670.71"/>
<polygon fill="#806030" stroke="#806030" points="765.55,-669.15 757.41,-662.37 759.55,-672.75 765.55,-669.15"/>
<text xml:space="preserve" text-anchor="middle" x="837.6" y="-905.83" font-family="Times,serif" font-size="14.00">&gt;</text>
</g>
<!-- Poison -->
<g id="node8" class="node">
<title>Poison</title>
<path fill="#8000e0" stroke="black" d="M585.88,-32.73C585.88,-34.53 571.87,-36 554.62,-36 537.38,-36 523.38,-34.53 523.38,-32.73 523.38,-32.73 523.38,-3.27 523.38,-3.27 523.38,-1.47 537.38,0 554.62,0 571.87,0 585.88,-1.47 585.88,-3.27 585.88,-3.27 585.88,-32.73 585.88,-32.73"/>
<path fill="none" stroke="black" d="M585.88,-32.73C585.88,-30.92 571.87,-29.45 554.62,-29.45 537.38,-29.45 523.38,-30.92 523.38,-32.73"/>
<text xml:space="preserve" text-anchor="middle" x="554.62" y="-13.32" font-family="Times,serif" font-size="14.00">Poison</text>
</g>
<!-- Poison&#45;&gt;Grass -->
<g id="edge22" class="edge">
<title>Poison&#45;&gt;Grass</title>
<path fill="none" stroke="#8000e0" d="M523.12,-21.51C417.97,-30.3 85.62,-61.63 85.62,-106.25 85.62,-465.25 85.62,-465.25 85.62,-465.25 85.62,-570.8 145.91,-582.68 189.62,-678.75 221.71,-749.26 221,-770.98 257.62,-839.25 280.11,-881.15 280.99,-897.01 316.62,-928.5 367.13,-973.13 394.19,-961.98 458.62,-981.75 461.02,-982.48 463.47,-983.27 465.93,-984.08"/>
<polygon fill="#8000e0" stroke="#8000e0" points="464.67,-987.35 475.26,-987.29 466.94,-980.73 464.67,-987.35"/>
<text xml:space="preserve" text-anchor="middle" x="97.75" y="-504.2" font-family="Times,serif" font-size="14.00">&gt;</text>
</g>
<!-- Fairy -->
<g id="node18" class="node">
<title>Fairy</title>
<path fill="#e050c0" stroke="black" d="M869.62,-568.23C869.62,-570.03 857.52,-571.5 842.62,-571.5 827.73,-571.5 815.62,-570.03 815.62,-568.23 815.62,-568.23 815.62,-538.77 815.62,-538.77 815.62,-536.97 827.73,-535.5 842.62,-535.5 857.52,-535.5 869.62,-536.97 869.62,-538.77 869.62,-538.77 869.62,-568.23 869.62,-568.23"/>
<path fill="none" stroke="black" d="M869.62,-568.23C869.62,-566.42 857.52,-564.95 842.62,-564.95 827.73,-564.95 815.62,-566.42 815.62,-568.23"/>
<text xml:space="preserve" text-anchor="middle" x="842.62" y="-548.83" font-family="Times,serif" font-size="14.00">Fairy</text>
</g>
<!-- Poison&#45;&gt;Fairy -->
<g id="edge23" class="edge">
<title>Poison&#45;&gt;Fairy</title>
<path fill="none" stroke="#8000e0" d="M586.09,-19.74C675.32,-22.7 923.62,-37.13 923.62,-106.25 923.62,-286.75 923.62,-286.75 923.62,-286.75 923.62,-377.14 880.22,-477.6 856.96,-524.95"/>
<polygon fill="#8000e0" stroke="#8000e0" points="853.94,-523.16 852.59,-533.67 860.2,-526.29 853.94,-523.16"/>
<text xml:space="preserve" text-anchor="middle" x="929.62" y="-281.07" font-family="Times,serif" font-size="14.00">&gt;</text>
</g>
<!-- Ground&#45;&gt;Fire -->
<g id="edge24" class="edge">
<title>Ground&#45;&gt;Fire</title>
<path fill="none" stroke="#806030" d="M536.68,-802.82C545.3,-792.42 556.73,-779.12 567.62,-768 571.16,-764.39 574.99,-760.71 578.83,-757.14"/>
<polygon fill="#806030" stroke="#806030" points="580.95,-759.94 586.01,-750.63 576.25,-754.76 580.95,-759.94"/>
<text xml:space="preserve" text-anchor="middle" x="573.62" y="-771.95" font-family="Times,serif" font-size="14.00">&gt;</text>
</g>
<!-- Ground&#45;&gt;Electric -->
<g id="edge25" class="edge">
<title>Ground&#45;&gt;Electric</title>
<path fill="none" stroke="#806030" d="M523.22,-803.01C523.62,-791.18 524.17,-775.2 524.65,-761.5"/>
<polygon fill="#806030" stroke="#806030" points="528.14,-761.83 524.98,-751.71 521.14,-761.59 528.14,-761.83"/>
<text xml:space="preserve" text-anchor="middle" x="530.39" y="-771.95" font-family="Times,serif" font-size="14.00">&gt;</text>
</g>
<!-- Ground&#45;&gt;Poison -->
<g id="edge26" class="edge">
<title>Ground&#45;&gt;Poison</title>
<path fill="none" stroke="#806030" d="M503.13,-803.1C460.67,-763.74 363.62,-662.03 363.62,-554.5 363.62,-554.5 363.62,-554.5 363.62,-106.25 363.62,-41.58 455.33,-24.64 511.65,-20.34"/>
<polygon fill="#806030" stroke="#806030" points="511.82,-23.83 521.57,-19.69 511.37,-16.85 511.82,-23.83"/>
<text xml:space="preserve" text-anchor="middle" x="369.62" y="-414.95" font-family="Times,serif" font-size="14.00">&gt;</text>
</g>
<!-- Ground&#45;&gt;Rock -->
<g id="edge27" class="edge">
<title>Ground&#45;&gt;Rock</title>
<path fill="none" stroke="#806030" d="M510.64,-803.01C501.45,-789.17 488.96,-769 480.62,-750 455.53,-692.84 437.49,-621.66 428.69,-582.9"/>
<polygon fill="#806030" stroke="#806030" points="432.12,-582.22 426.54,-573.22 425.29,-583.74 432.12,-582.22"/>
<text xml:space="preserve" text-anchor="middle" x="465.91" y="-682.7" font-family="Times,serif" font-size="14.00">&gt;</text>
</g>
<!-- Ground&#45;&gt;Steel -->
<g id="edge28" class="edge">
<title>Ground&#45;&gt;Steel</title>
<path fill="none" stroke="#806030" d="M551.54,-803.8C561.71,-797.98 573.19,-791.36 583.62,-785.25 609.98,-769.82 618.12,-768.24 642.62,-750 671.14,-728.78 677.01,-721.65 701.62,-696 709.46,-687.83 717.58,-678.49 724.67,-669.98"/>
<polygon fill="#806030" stroke="#806030" points="727.29,-672.3 730.94,-662.35 721.89,-667.85 727.29,-672.3"/>
<text xml:space="preserve" text-anchor="middle" x="689.99" y="-727.33" font-family="Times,serif" font-size="14.00">&gt;</text>
</g>
<!-- Flying&#45;&gt;Grass -->
<g id="edge29" class="edge">
<title>Flying&#45;&gt;Grass</title>
<path fill="none" stroke="#c08060" d="M391.97,-467.96C344.75,-474 259.62,-493.12 259.62,-552.5 259.62,-688.38 259.62,-688.38 259.62,-688.38 259.62,-755.91 245.15,-780.04 277.62,-839.25 318.92,-914.54 412.79,-962.17 466.32,-984.26"/>
<polygon fill="#c08060" stroke="#c08060" points="464.79,-987.41 475.37,-987.89 467.4,-980.92 464.79,-987.41"/>
<text xml:space="preserve" text-anchor="middle" x="264.94" y="-727.33" font-family="Times,serif" font-size="14.00">&gt;</text>
</g>
<!-- Flying&#45;&gt;Fighting -->
<g id="edge30" class="edge">
<title>Flying&#45;&gt;Fighting</title>
<path fill="none" stroke="#c08060" d="M391.95,-464.42C342.8,-464.18 244.25,-468.21 168.62,-500.25 145.23,-510.16 135.78,-513.19 123.62,-535.5 62.85,-647.11 97.62,-693.17 97.62,-820.25 97.62,-1090 97.62,-1090 97.62,-1090 97.62,-1155.58 171.52,-1128.41 235.62,-1142.25 330.57,-1162.75 620.17,-1172.71 737.49,-1175.98"/>
<polygon fill="#c08060" stroke="#c08060" points="737.34,-1179.48 747.43,-1176.25 737.53,-1172.48 737.34,-1179.48"/>
<text xml:space="preserve" text-anchor="middle" x="103.62" y="-816.58" font-family="Times,serif" font-size="14.00">&gt;</text>
</g>
<!-- Flying&#45;&gt;Bug -->
<g id="edge31" class="edge">
<title>Flying&#45;&gt;Bug</title>
<path fill="none" stroke="#c08060" d="M441.48,-446.12C455.07,-434.62 474.35,-419.99 493.62,-411 527.49,-395.21 569.27,-386.07 599.09,-381.12"/>
<polygon fill="#c08060" stroke="#c08060" points="599.45,-384.6 608.79,-379.6 598.37,-377.69 599.45,-384.6"/>
<text xml:space="preserve" text-anchor="middle" x="499.62" y="-414.95" font-family="Times,serif" font-size="14.00">&gt;</text>
</g>
<!-- Psychic -->
<g id="node11" class="node">
<title>Psychic</title>
<path fill="#ff8000" stroke="black" d="M746.88,-121.98C746.88,-123.78 731.52,-125.25 712.62,-125.25 693.73,-125.25 678.38,-123.78 678.38,-121.98 678.38,-121.98 678.38,-92.52 678.38,-92.52 678.38,-90.72 693.73,-89.25 712.62,-89.25 731.52,-89.25 746.88,-90.72 746.88,-92.52 746.88,-92.52 746.88,-121.98 746.88,-121.98"/>
<path fill="none" stroke="black" d="M746.88,-121.98C746.88,-120.17 731.52,-118.7 712.62,-118.7 693.73,-118.7 678.38,-120.17 678.38,-121.98"/>
<text xml:space="preserve" text-anchor="middle" x="712.62" y="-102.58" font-family="Times,serif" font-size="14.00">Psychic</text>
</g>
<!-- Psychic&#45;&gt;Fighting -->
<g id="edge32" class="edge">
<title>Psychic&#45;&gt;Fighting</title>
<path fill="none" stroke="#ff8000" d="M747.26,-120.14C816.12,-146.22 963.62,-215.4 963.62,-329.38 963.62,-1090 963.62,-1090 963.62,-1090 963.62,-1146.6 889.67,-1166.48 837.64,-1173.47"/>
<polygon fill="#ff8000" stroke="#ff8000" points="837.26,-1169.99 827.75,-1174.66 838.1,-1176.94 837.26,-1169.99"/>
<text xml:space="preserve" text-anchor="middle" x="969.62" y="-638.08" font-family="Times,serif" font-size="14.00">&gt;</text>
</g>
<!-- Psychic&#45;&gt;Poison -->
<g id="edge33" class="edge">
<title>Psychic&#45;&gt;Poison</title>
<path fill="none" stroke="#ff8000" d="M682.91,-89.84C657.67,-75.9 621.26,-55.8 593.67,-40.56"/>
<polygon fill="#ff8000" stroke="#ff8000" points="595.71,-37.69 585.27,-35.92 592.33,-43.82 595.71,-37.69"/>
<text xml:space="preserve" text-anchor="middle" x="653.78" y="-57.95" font-family="Times,serif" font-size="14.00">&gt;</text>
</g>
<!-- Bug&#45;&gt;Grass -->
<g id="edge34" class="edge">
<title>Bug&#45;&gt;Grass</title>
<path fill="none" stroke="#008040" d="M654.89,-393.01C669.69,-409.47 688.62,-435.88 688.62,-463.25 688.62,-643.75 688.62,-643.75 688.62,-643.75 688.62,-691.07 704.62,-703.54 695.62,-750 676.16,-850.53 684.1,-893.47 609.62,-963.75 592.24,-980.15 566.92,-988.89 545.62,-993.52"/>
<polygon fill="#008040" stroke="#008040" points="545.23,-990.03 536.07,-995.36 546.56,-996.91 545.23,-990.03"/>
<text xml:space="preserve" text-anchor="middle" x="701.19" y="-682.7" font-family="Times,serif" font-size="14.00">&gt;</text>
</g>
<!-- Bug&#45;&gt;Psychic -->
<g id="edge35" class="edge">
<title>Bug&#45;&gt;Psychic</title>
<path fill="none" stroke="#008040" d="M639.11,-356.53C642.46,-321.77 652.13,-241.81 674.62,-178.5 679.88,-163.7 687.93,-148.24 695.27,-135.61"/>
<polygon fill="#008040" stroke="#008040" points="698.27,-137.41 700.41,-127.03 692.26,-133.81 698.27,-137.41"/>
<text xml:space="preserve" text-anchor="middle" x="664.92" y="-236.45" font-family="Times,serif" font-size="14.00">&gt;</text>
</g>
<!-- Bug&#45;&gt;Dark -->
<g id="edge36" class="edge">
<title>Bug&#45;&gt;Dark</title>
<path fill="none" stroke="#008040" d="M664.94,-359.98C693.56,-345.29 738.72,-322.12 770.55,-305.78"/>
<polygon fill="#008040" stroke="#008040" points="771.73,-309.1 779.03,-301.42 768.54,-302.88 771.73,-309.1"/>
<text xml:space="preserve" text-anchor="middle" x="743.85" y="-325.7" font-family="Times,serif" font-size="14.00">&gt;</text>
</g>
<!-- Rock&#45;&gt;Fire -->
<g id="edge37" class="edge">
<title>Rock&#45;&gt;Fire</title>
<path fill="none" stroke="#404040" d="M448.86,-570.48C457.38,-576.1 466.68,-582.72 474.62,-589.5 517.48,-626.06 560.82,-675.42 585.62,-705.14"/>
<polygon fill="#404040" stroke="#404040" points="582.67,-707.06 591.74,-712.53 588.06,-702.59 582.67,-707.06"/>
<text xml:space="preserve" text-anchor="middle" x="551.62" y="-638.08" font-family="Times,serif" font-size="14.00">&gt;</text>
</g>
<!-- Rock&#45;&gt;Ice -->
<g id="edge38" class="edge">
<title>Rock&#45;&gt;Ice</title>
<path fill="none" stroke="#404040" d="M395.33,-560.88C359.09,-571.17 299.62,-595.15 299.62,-641.75 299.62,-777.62 299.62,-777.62 299.62,-777.62 299.62,-907.87 363.78,-939.13 467.62,-1017.75 513.53,-1052.51 578.43,-1071.54 619.26,-1080.75"/>
<polygon fill="#404040" stroke="#404040" points="618.36,-1084.13 628.87,-1082.82 619.83,-1077.29 618.36,-1084.13"/>
<text xml:space="preserve" text-anchor="middle" x="311.72" y="-816.58" font-family="Times,serif" font-size="14.00">&gt;</text>
</g>
<!-- Rock&#45;&gt;Flying -->
<g id="edge39" class="edge">
<title>Rock&#45;&gt;Flying</title>
<path fill="none" stroke="#404040" d="M422.62,-535.26C422.62,-523.43 422.62,-507.45 422.62,-493.75"/>
<polygon fill="#404040" stroke="#404040" points="426.13,-493.97 422.63,-483.97 419.13,-493.97 426.13,-493.97"/>
<text xml:space="preserve" text-anchor="middle" x="428.62" y="-504.2" font-family="Times,serif" font-size="14.00">&gt;</text>
</g>
<!-- Rock&#45;&gt;Bug -->
<g id="edge40" class="edge">
<title>Rock&#45;&gt;Bug</title>
<path fill="none" stroke="#404040" d="M442.85,-535.9C481.11,-504.49 564.19,-436.29 608.47,-399.94"/>
<polygon fill="#404040" stroke="#404040" points="610.62,-402.7 616.13,-393.65 606.18,-397.29 610.62,-402.7"/>
<text xml:space="preserve" text-anchor="middle" x="557.5" y="-459.57" font-family="Times,serif" font-size="14.00">&gt;</text>
</g>
<!-- Ghost -->
<g id="node14" class="node">
<title>Ghost</title>
<path fill="#d0d0d0" stroke="black" d="M741.62,-211.23C741.62,-213.03 728.63,-214.5 712.62,-214.5 696.62,-214.5 683.62,-213.03 683.62,-211.23 683.62,-211.23 683.62,-181.77 683.62,-181.77 683.62,-179.97 696.62,-178.5 712.62,-178.5 728.63,-178.5 741.62,-179.97 741.62,-181.77 741.62,-181.77 741.62,-211.23 741.62,-211.23"/>
<path fill="none" stroke="black" d="M741.62,-211.23C741.62,-209.42 728.63,-207.95 712.62,-207.95 696.62,-207.95 683.62,-209.42 683.62,-211.23"/>
<text xml:space="preserve" text-anchor="middle" x="712.62" y="-191.82" font-family="Times,serif" font-size="14.00">Ghost</text>
</g>
<!-- Ghost&#45;&gt;Psychic -->
<g id="edge41" class="edge">
<title>Ghost&#45;&gt;Psychic</title>
<path fill="none" stroke="#d0d0d0" d="M712.62,-178.26C712.62,-166.43 712.62,-150.45 712.62,-136.75"/>
<polygon fill="#d0d0d0" stroke="#d0d0d0" points="716.13,-136.97 712.63,-126.97 709.13,-136.97 716.13,-136.97"/>
<text xml:space="preserve" text-anchor="middle" x="718.62" y="-147.2" font-family="Times,serif" font-size="14.00">&gt;</text>
</g>
<!-- Ghost&#45;&gt;Ghost -->
<g id="edge42" class="edge">
<title>Ghost&#45;&gt;Ghost</title>
<path fill="none" stroke="#d0d0d0" d="M742,-204.87C751.79,-204.87 759.62,-202.08 759.62,-196.5 759.62,-193.36 757.15,-191.11 753.24,-189.73"/>
<polygon fill="#d0d0d0" stroke="#d0d0d0" points="753.89,-186.29 743.5,-188.35 752.9,-193.22 753.89,-186.29"/>
<text xml:space="preserve" text-anchor="middle" x="765.62" y="-191.82" font-family="Times,serif" font-size="14.00">&gt;</text>
</g>
<!-- Dragon&#45;&gt;Dragon -->
<g id="edge43" class="edge">
<title>Dragon&#45;&gt;Dragon</title>
<path fill="none" stroke="#c0e000" d="M785.3,-472.58C795.22,-472.26 802.88,-469.48 802.88,-464.25 802.88,-461.31 800.45,-459.14 796.57,-457.75"/>
<polygon fill="#c0e000" stroke="#c0e000" points="797.22,-454.31 786.79,-456.16 796.1,-461.22 797.22,-454.31"/>
<text xml:space="preserve" text-anchor="middle" x="808.88" y="-459.57" font-family="Times,serif" font-size="14.00">&gt;</text>
</g>
<!-- Dark&#45;&gt;Psychic -->
<g id="edge44" class="edge">
<title>Dark&#45;&gt;Psychic</title>
<path fill="none" stroke="#202020" d="M806.01,-267.55C803.36,-245.67 796.67,-207.25 780.62,-178.5 771.06,-161.36 756.25,-145.36 742.9,-132.98"/>
<polygon fill="#202020" stroke="#202020" points="745.32,-130.45 735.53,-126.4 740.66,-135.67 745.32,-130.45"/>
<text xml:space="preserve" text-anchor="middle" x="801.1" y="-191.82" font-family="Times,serif" font-size="14.00">&gt;</text>
</g>
<!-- Dark&#45;&gt;Ghost -->
<g id="edge45" class="edge">
<title>Dark&#45;&gt;Ghost</title>
<path fill="none" stroke="#202020" d="M789.31,-267.93C775.21,-254.97 755.5,-236.88 739.59,-222.27"/>
<polygon fill="#202020" stroke="#202020" points="742.06,-219.78 732.32,-215.59 737.32,-224.93 742.06,-219.78"/>
<text xml:space="preserve" text-anchor="middle" x="774.63" y="-236.45" font-family="Times,serif" font-size="14.00">&gt;</text>
</g>
<!-- Steel&#45;&gt;Ice -->
<g id="edge46" class="edge">
<title>Steel&#45;&gt;Ice</title>
<path fill="none" stroke="#808080" d="M746.26,-661.13C746.84,-678.74 747.62,-706.76 747.62,-731 747.62,-1000.75 747.62,-1000.75 747.62,-1000.75 747.62,-1031.74 719.78,-1055.24 695.07,-1070.01"/>
<polygon fill="#808080" stroke="#808080" points="693.44,-1066.91 686.44,-1074.87 696.87,-1073.01 693.44,-1066.91"/>
<text xml:space="preserve" text-anchor="middle" x="753.62" y="-861.2" font-family="Times,serif" font-size="14.00">&gt;</text>
</g>
<!-- Steel&#45;&gt;Rock -->
<g id="edge47" class="edge">
<title>Steel&#45;&gt;Rock</title>
<path fill="none" stroke="#808080" d="M718.27,-641.13C677.85,-639.34 600.49,-632.51 540.62,-606.75 528.89,-601.7 528.85,-595.61 517.62,-589.5 499.68,-579.74 478.45,-571.63 460.62,-565.68"/>
<polygon fill="#808080" stroke="#808080" points="461.77,-562.37 451.17,-562.64 459.62,-569.03 461.77,-562.37"/>
<text xml:space="preserve" text-anchor="middle" x="546.62" y="-593.45" font-family="Times,serif" font-size="14.00">&gt;</text>
</g>
<!-- Steel&#45;&gt;Fairy -->
<g id="edge48" class="edge">
<title>Steel&#45;&gt;Fairy</title>
<path fill="none" stroke="#808080" d="M764.33,-624.93C778.95,-611.77 799.48,-593.3 815.85,-578.58"/>
<polygon fill="#808080" stroke="#808080" points="817.76,-581.57 822.85,-572.28 813.08,-576.37 817.76,-581.57"/>
<text xml:space="preserve" text-anchor="middle" x="808.81" y="-593.45" font-family="Times,serif" font-size="14.00">&gt;</text>
</g>
<!-- Fairy&#45;&gt;Fighting -->
<g id="edge49" class="edge">
<title>Fairy&#45;&gt;Fighting</title>
<path fill="none" stroke="#e050c0" d="M852.12,-571.98C860.58,-589.21 871.62,-616.53 871.62,-641.75 871.62,-1090 871.62,-1090 871.62,-1090 871.62,-1117.29 850.03,-1139.34 828.74,-1154.44"/>
<polygon fill="#e050c0" stroke="#e050c0" points="827.02,-1151.38 820.64,-1159.84 830.9,-1157.21 827.02,-1151.38"/>
<text xml:space="preserve" text-anchor="middle" x="877.62" y="-861.2" font-family="Times,serif" font-size="14.00">&gt;</text>
</g>
<!-- Fairy&#45;&gt;Dragon -->
<g id="edge50" class="edge">
<title>Fairy&#45;&gt;Dragon</title>
<path fill="none" stroke="#e050c0" d="M827.72,-535.48C818.28,-524.99 805.63,-511.44 793.62,-500.25 789.7,-496.59 785.44,-492.86 781.18,-489.26"/>
<polygon fill="#e050c0" stroke="#e050c0" points="783.65,-486.77 773.71,-483.11 779.2,-492.17 783.65,-486.77"/>
<text xml:space="preserve" text-anchor="middle" x="816.42" y="-504.2" font-family="Times,serif" font-size="14.00">&gt;</text>
</g>
<!-- Fairy&#45;&gt;Dark -->
<g id="edge51" class="edge">
<title>Fairy&#45;&gt;Dark</title>
<path fill="none" stroke="#e050c0" d="M840.33,-535.06C834.42,-490.19 818.64,-370.38 811.38,-315.25"/>
<polygon fill="#e050c0" stroke="#e050c0" points="814.86,-314.86 810.08,-305.41 807.92,-315.78 814.86,-314.86"/>
<text xml:space="preserve" text-anchor="middle" x="831.93" y="-414.95" font-family="Times,serif" font-size="14.00">&gt;</text>
</g>
</g>
</svg>
