<?xml version="1.0" encoding="UTF-8" standalone="no"?>
<!DOCTYPE svg PUBLIC "-//W3C//DTD SVG 1.1//EN"
 "http://www.w3.org/Graphics/SVG/1.1/DTD/svg11.dtd">
<!-- Generated by graphviz version 14.0.2 (0)
 -->
<!-- Title: TypeChart Pages: 1 -->
<svg width="646pt" height="669pt"
 viewBox="0.00 0.00 646.00 669.00" xmlns="http://www.w3.org/2000/svg" xmlns:xlink="http://www.w3.org/1999/xlink">
<g id="graph0" class="graph" transform="scale(1 1) rotate(0) translate(4 664.75)">
<title>TypeChart</title>
<polygon fill="white" stroke="none" points="-4,4 -4,-664.75 642,-664.75 642,4 -4,4"/>
<!-- Mil -->
<g id="node1" class="node">
<title>Mil</title>
<path fill="#e00000" stroke="black" d="M485,-657.48C485,-659.28 472.9,-660.75 458,-660.75 443.1,-660.75 431,-659.28 431,-657.48 431,-657.48 431,-628.02 431,-628.02 431,-626.22 443.1,-624.75 458,-624.75 472.9,-624.75 485,-626.22 485,-628.02 485,-628.02 485,-657.48 485,-657.48"/>
<path fill="none" stroke="black" d="M485,-657.48C485,-655.67 472.9,-654.2 458,-654.2 443.1,-654.2 431,-655.67 431,-657.48"/>
<text xml:space="preserve" text-anchor="middle" x="458" y="-638.08" font-family="Times,serif" font-size="14.00">Mil</text>
</g>
<!-- Bio -->
<g id="node2" class="node">
<title>Bio</title>
<path fill="#00e000" stroke="black" d="M357,-568.23C357,-570.03 344.9,-571.5 330,-571.5 315.1,-571.5 303,-570.03 303,-568.23 303,-568.23 303,-538.77 303,-538.77 303,-536.97 315.1,-535.5 330,-535.5 344.9,-535.5 357,-536.97 357,-538.77 357,-538.77 357,-568.23 357,-568.23"/>
<path fill="none" stroke="black" d="M357,-568.23C357,-566.42 344.9,-564.95 330,-564.95 315.1,-564.95 303,-566.42 303,-568.23"/>
<text xml:space="preserve" text-anchor="middle" x="330" y="-548.83" font-family="Times,serif" font-size="14.00">Bio</text>
</g>
<!-- Mil&#45;&gt;Bio -->
<g id="edge1" class="edge">
<title>Mil&#45;&gt;Bio</title>
<path fill="none" stroke="#e00000" d="M430.67,-629.55C417.9,-623.39 402.75,-615.39 390,-606.75 378.06,-598.66 365.88,-588.47 355.64,-579.25"/>
<polygon fill="#e00000" stroke="#e00000" points="358.04,-576.7 348.31,-572.5 353.29,-581.85 358.04,-576.7"/>
<text xml:space="preserve" text-anchor="middle" x="396" y="-593.45" font-family="Times,serif" font-size="14.00">&gt;</text>
</g>
<!-- AI -->
<g id="node8" class="node">
<title>AI</title>
<path fill="#808080" stroke="black" d="M206,-300.48C206,-302.28 193.9,-303.75 179,-303.75 164.1,-303.75 152,-302.28 152,-300.48 152,-300.48 152,-271.02 152,-271.02 152,-269.22 164.1,-267.75 179,-267.75 193.9,-267.75 206,-269.22 206,-271.02 206,-271.02 206,-300.48 206,-300.48"/>
<path fill="none" stroke="black" d="M206,-300.48C206,-298.67 193.9,-297.2 179,-297.2 164.1,-297.2 152,-298.67 152,-300.48"/>
<text xml:space="preserve" text-anchor="middle" x="179" y="-281.07" font-family="Times,serif" font-size="14.00">AI</text>
</g>
<!-- Mil&#45;&gt;AI -->
<g id="edge2" class="edge">
<title>Mil&#45;&gt;AI</title>
<path fill="none" stroke="#e00000" d="M430.65,-641.81C338.63,-641.27 46,-633.37 46,-554.5 46,-554.5 46,-554.5 46,-374 46,-362.47 102.58,-328.87 141.93,-306.89"/>
<polygon fill="#e00000" stroke="#e00000" points="143.39,-310.08 150.44,-302.17 140,-303.96 143.39,-310.08"/>
<text xml:space="preserve" text-anchor="middle" x="52" y="-459.57" font-family="Times,serif" font-size="14.00">&gt;</text>
</g>
<!-- Street -->
<g id="node9" class="node">
<title>Street</title>
<path fill="#806030" stroke="black" d="M419.5,-389.73C419.5,-391.53 405.83,-393 389,-393 372.17,-393 358.5,-391.53 358.5,-389.73 358.5,-389.73 358.5,-360.27 358.5,-360.27 358.5,-358.47 372.17,-357 389,-357 405.83,-357 419.5,-358.47 419.5,-360.27 419.5,-360.27 419.5,-389.73 419.5,-389.73"/>
<path fill="none" stroke="black" d="M419.5,-389.73C419.5,-387.92 405.83,-386.45 389,-386.45 372.17,-386.45 358.5,-387.92 358.5,-389.73"/>
<text xml:space="preserve" text-anchor="middle" x="389" y="-370.32" font-family="Times,serif" font-size="14.00">Street</text>
</g>
<!-- Mil&#45;&gt;Street -->
<g id="edge3" class="edge">
<title>Mil&#45;&gt;Street</title>
<path fill="none" stroke="#e00000" d="M453.47,-624.31C441.8,-579.35 410.58,-459.13 396.31,-404.15"/>
<polygon fill="#e00000" stroke="#e00000" points="399.74,-403.42 393.83,-394.62 392.96,-405.18 399.74,-403.42"/>
<text xml:space="preserve" text-anchor="middle" x="431.09" y="-504.2" font-family="Times,serif" font-size="14.00">&gt;</text>
</g>
<!-- Tel -->
<g id="node3" class="node">
<title>Tel</title>
<path fill="#0060e0" stroke="black" d="M255,-478.98C255,-480.78 242.9,-482.25 228,-482.25 213.1,-482.25 201,-480.78 201,-478.98 201,-478.98 201,-449.52 201,-449.52 201,-447.72 213.1,-446.25 228,-446.25 242.9,-446.25 255,-447.72 255,-449.52 255,-449.52 255,-478.98 255,-478.98"/>
<path fill="none" stroke="black" d="M255,-478.98C255,-477.17 242.9,-475.7 228,-475.7 213.1,-475.7 201,-477.17 201,-478.98"/>
<text xml:space="preserve" text-anchor="middle" x="228" y="-459.57" font-family="Times,serif" font-size="14.00">Tel</text>
</g>
<!-- Bio&#45;&gt;Tel -->
<g id="edge4" class="edge">
<title>Bio&#45;&gt;Tel</title>
<path fill="none" stroke="#00e000" d="M302.78,-541.68C290.09,-535.77 275.33,-527.59 264,-517.5 255.87,-510.26 248.65,-500.83 242.86,-491.97"/>
<polygon fill="#00e000" stroke="#00e000" points="245.96,-490.33 237.73,-483.65 240,-494 245.96,-490.33"/>
<text xml:space="preserve" text-anchor="middle" x="270" y="-504.2" font-family="Times,serif" font-size="14.00">&gt;</text>
</g>
<!-- Blk -->
<g id="node6" class="node">
<title>Blk</title>
<path fill="#101010" stroke="black" d="M295,-211.23C295,-213.03 282.9,-214.5 268,-214.5 253.1,-214.5 241,-213.03 241,-211.23 241,-211.23 241,-181.77 241,-181.77 241,-179.97 253.1,-178.5 268,-178.5 282.9,-178.5 295,-179.97 295,-181.77 295,-181.77 295,-211.23 295,-211.23"/>
<path fill="none" stroke="black" d="M295,-211.23C295,-209.42 282.9,-207.95 268,-207.95 253.1,-207.95 241,-209.42 241,-211.23"/>
<text xml:space="preserve" text-anchor="middle" x="268" y="-191.82" font-family="Times,serif" font-size="14.00">Blk</text>
</g>
<!-- Bio&#45;&gt;Blk -->
<g id="edge5" class="edge">
<title>Bio&#45;&gt;Blk</title>
<path fill="none" stroke="#00e000" d="M327.01,-535.38C317.11,-478.69 285.32,-296.69 272.97,-225.98"/>
<polygon fill="#00e000" stroke="#00e000" points="276.46,-225.61 271.29,-216.36 269.57,-226.81 276.46,-225.61"/>
<text xml:space="preserve" text-anchor="middle" x="307.73" y="-370.32" font-family="Times,serif" font-size="14.00">&gt;</text>
</g>
<!-- Wht -->
<g id="node7" class="node">
<title>Wht</title>
<path fill="#dddddd" stroke="black" d="M298,-121.98C298,-123.78 285.9,-125.25 271,-125.25 256.1,-125.25 244,-123.78 244,-121.98 244,-121.98 244,-92.52 244,-92.52 244,-90.72 256.1,-89.25 271,-89.25 285.9,-89.25 298,-90.72 298,-92.52 298,-92.52 298,-121.98 298,-121.98"/>
<path fill="none" stroke="black" d="M298,-121.98C298,-120.17 285.9,-118.7 271,-118.7 256.1,-118.7 244,-120.17 244,-121.98"/>
<text xml:space="preserve" text-anchor="middle" x="271" y="-102.58" font-family="Times,serif" font-size="14.00">Wht</text>
</g>
<!-- Bio&#45;&gt;Wht -->
<g id="edge6" class="edge">
<title>Bio&#45;&gt;Wht</title>
<path fill="none" stroke="#00e000" d="M357.31,-552.31C383.31,-550.49 421.19,-543.22 440,-517.5 443.06,-513.31 469.24,-558.11 431,-267.75 422.09,-200.06 398.29,-180.39 341,-143.25 330.91,-136.71 319.43,-130.51 308.73,-125.19"/>
<polygon fill="#00e000" stroke="#00e000" points="310.26,-122.04 299.73,-120.85 307.21,-128.35 310.26,-122.04"/>
<text xml:space="preserve" text-anchor="middle" x="445.86" y="-325.7" font-family="Times,serif" font-size="14.00">&gt;</text>
</g>
<!-- Bio&#45;&gt;Street -->
<g id="edge7" class="edge">
<title>Bio&#45;&gt;Street</title>
<path fill="none" stroke="#00e000" d="M337.23,-535.15C339.49,-529.55 341.92,-523.29 344,-517.5 357.99,-478.47 372.16,-432.63 380.77,-403.94"/>
<polygon fill="#00e000" stroke="#00e000" points="384.06,-405.16 383.56,-394.57 377.35,-403.16 384.06,-405.16"/>
<text xml:space="preserve" text-anchor="middle" x="373.54" y="-459.57" font-family="Times,serif" font-size="14.00">&gt;</text>
</g>
<!-- Tel&#45;&gt;Mil -->
<g id="edge8" class="edge">
<title>Tel&#45;&gt;Mil</title>
<path fill="none" stroke="#0060e0" d="M232.19,-482.7C238.76,-506.31 253.76,-548.18 282,-571.5 322.58,-605.01 381.16,-624.07 419.4,-633.65"/>
<polygon fill="#0060e0" stroke="#0060e0" points="418.56,-637.05 429.1,-635.98 420.19,-630.25 418.56,-637.05"/>
<text xml:space="preserve" text-anchor="middle" x="288" y="-548.83" font-family="Times,serif" font-size="14.00">&gt;</text>
</g>
<!-- Nano -->
<g id="node4" class="node">
<title>Nano</title>
<path fill="#c0e000" stroke="black" d="M211,-32.73C211,-34.53 198.9,-36 184,-36 169.1,-36 157,-34.53 157,-32.73 157,-32.73 157,-3.27 157,-3.27 157,-1.47 169.1,0 184,0 198.9,0 211,-1.47 211,-3.27 211,-3.27 211,-32.73 211,-32.73"/>
<path fill="none" stroke="black" d="M211,-32.73C211,-30.92 198.9,-29.45 184,-29.45 169.1,-29.45 157,-30.92 157,-32.73"/>
<text xml:space="preserve" text-anchor="middle" x="184" y="-13.32" font-family="Times,serif" font-size="14.00">Nano</text>
</g>
<!-- Tel&#45;&gt;Nano -->
<g id="edge9" class="edge">
<title>Tel&#45;&gt;Nano</title>
<path fill="none" stroke="#0060e0" d="M200.6,-447.48C191.52,-441.83 181.55,-435.13 173,-428.25 100.34,-369.75 76,-335.41 76,-242.12 76,-242.12 76,-242.12 76,-106.25 76,-69.16 115.01,-45.14 146.14,-31.87"/>
<polygon fill="#0060e0" stroke="#0060e0" points="147.36,-35.16 155.34,-28.19 144.76,-28.66 147.36,-35.16"/>
<text xml:space="preserve" text-anchor="middle" x="82.05" y="-236.45" font-family="Times,serif" font-size="14.00">&gt;</text>
</g>
<!-- Tel&#45;&gt;AI -->
<g id="edge10" class="edge">
<title>Tel&#45;&gt;AI</title>
<path fill="none" stroke="#0060e0" d="M220.84,-445.87C218.59,-440.27 216.13,-434.02 214,-428.25 208.26,-412.73 206.42,-408.95 202,-393 194.8,-367.03 188.47,-336.98 184.29,-315.48"/>
<polygon fill="#0060e0" stroke="#0060e0" points="187.73,-314.85 182.42,-305.69 180.86,-316.16 187.73,-314.85"/>
<text xml:space="preserve" text-anchor="middle" x="208" y="-370.32" font-family="Times,serif" font-size="14.00">&gt;</text>
</g>
<!-- Tel&#45;&gt;Street -->
<g id="edge11" class="edge">
<title>Tel&#45;&gt;Street</title>
<path fill="none" stroke="#0060e0" d="M246.86,-446.3C259.95,-435.18 278.17,-420.91 296,-411 312.2,-401.99 331.19,-394.38 347.77,-388.58"/>
<polygon fill="#0060e0" stroke="#0060e0" points="348.47,-392.03 356.83,-385.51 346.23,-385.4 348.47,-392.03"/>
<text xml:space="preserve" text-anchor="middle" x="302" y="-414.95" font-family="Times,serif" font-size="14.00">&gt;</text>
</g>
<!-- Nano&#45;&gt;Mil -->
<g id="edge12" class="edge">
<title>Nano&#45;&gt;Mil</title>
<path fill="none" stroke="#c0e000" d="M211.32,-18.55C307.68,-17.69 626,-21.29 626,-106.25 626,-554.5 626,-554.5 626,-554.5 626,-612.46 546.27,-631.97 496.66,-638.5"/>
<polygon fill="#c0e000" stroke="#c0e000" points="496.39,-635.01 486.87,-639.66 497.21,-641.96 496.39,-635.01"/>
<text xml:space="preserve" text-anchor="middle" x="632" y="-325.7" font-family="Times,serif" font-size="14.00">&gt;</text>
</g>
<!-- Nano&#45;&gt;Bio -->
<g id="edge13" class="edge">
<title>Nano&#45;&gt;Bio</title>
<path fill="none" stroke="#c0e000" d="M156.85,-19.81C105.67,-22.92 0,-37.66 0,-106.25 0,-420.62 0,-420.62 0,-420.62 0,-450.02 1.44,-463.41 24,-482.25 116.34,-559.35 177.28,-498.07 291.77,-533.69"/>
<polygon fill="#c0e000" stroke="#c0e000" points="290.63,-536.99 301.22,-536.83 292.84,-530.35 290.63,-536.99"/>
<text xml:space="preserve" text-anchor="middle" x="6" y="-281.07" font-family="Times,serif" font-size="14.00">&gt;</text>
</g>
<!-- Nano&#45;&gt;Nano -->
<g id="edge14" class="edge">
<title>Nano&#45;&gt;Nano</title>
<path fill="none" stroke="#c0e000" d="M211.24,-26.36C221.02,-26.54 229,-23.75 229,-18 229,-14.76 226.48,-12.47 222.53,-11.11"/>
<polygon fill="#c0e000" stroke="#c0e000" points="223.11,-7.65 212.74,-9.84 222.21,-14.6 223.11,-7.65"/>
<text xml:space="preserve" text-anchor="middle" x="235" y="-13.32" font-family="Times,serif" font-size="14.00">&gt;</text>
</g>
<!-- Nano&#45;&gt;Street -->
<g id="edge15" class="edge">
<title>Nano&#45;&gt;Street</title>
<path fill="none" stroke="#c0e000" d="M211.05,-20.63C272.57,-25.97 422.58,-48.57 486,-143.25 488.56,-147.08 490.74,-328.25 483,-339 470.98,-355.7 450.03,-364.44 430.96,-369.01"/>
<polygon fill="#c0e000" stroke="#c0e000" points="430.31,-365.57 421.21,-371 431.71,-372.43 430.31,-365.57"/>
<text xml:space="preserve" text-anchor="middle" x="494.3" y="-191.82" font-family="Times,serif" font-size="14.00">&gt;</text>
</g>
<!-- Chem -->
<g id="node5" class="node">
<title>Chem</title>
<path fill="#8000e0" stroke="black" d="M405.62,-300.48C405.62,-302.28 392.79,-303.75 377,-303.75 361.21,-303.75 348.38,-302.28 348.38,-300.48 348.38,-300.48 348.38,-271.02 348.38,-271.02 348.38,-269.22 361.21,-267.75 377,-267.75 392.79,-267.75 405.62,-269.22 405.62,-271.02 405.62,-271.02 405.62,-300.48 405.62,-300.48"/>
<path fill="none" stroke="black" d="M405.62,-300.48C405.62,-298.67 392.79,-297.2 377,-297.2 361.21,-297.2 348.38,-298.67 348.38,-300.48"/>
<text xml:space="preserve" text-anchor="middle" x="377" y="-281.07" font-family="Times,serif" font-size="14.00">Chem</text>
</g>
<!-- Chem&#45;&gt;Mil -->
<g id="edge16" class="edge">
<title>Chem&#45;&gt;Mil</title>
<path fill="none" stroke="#8000e0" d="M405.91,-287.83C430.11,-290.45 463.28,-298.41 480,-321.75 544.28,-411.49 495.82,-554.11 470.68,-613.92"/>
<polygon fill="#8000e0" stroke="#8000e0" points="467.5,-612.46 466.74,-623.03 473.92,-615.24 467.5,-612.46"/>
<text xml:space="preserve" text-anchor="middle" x="517.7" y="-459.57" font-family="Times,serif" font-size="14.00">&gt;</text>
</g>
<!-- Chem&#45;&gt;Bio -->
<g id="edge17" class="edge">
<title>Chem&#45;&gt;Bio</title>
<path fill="none" stroke="#8000e0" d="M368.78,-304.24C362.59,-318.21 354.43,-338.45 350,-357 336.09,-415.24 331.85,-485.51 330.56,-523.94"/>
<polygon fill="#8000e0" stroke="#8000e0" points="327.07,-523.64 330.28,-533.73 334.07,-523.84 327.07,-523.64"/>
<text xml:space="preserve" text-anchor="middle" x="345.83" y="-414.95" font-family="Times,serif" font-size="14.00">&gt;</text>
</g>
<!-- Blk&#45;&gt;Mil -->
<g id="edge21" class="edge">
<title>Blk&#45;&gt;Mil</title>
<path fill="none" stroke="#101010" d="M295.42,-198.5C328.01,-200.81 382.98,-208.31 423,-232.5 506.62,-283.05 540,-320.92 540,-418.62 540,-554.5 540,-554.5 540,-554.5 540,-582.93 516.6,-605.88 494.8,-621.1"/>
<polygon fill="#101010" stroke="#101010" points="493,-618.09 486.57,-626.51 496.85,-623.94 493,-618.09"/>
<text xml:space="preserve" text-anchor="middle" x="546" y="-414.95" font-family="Times,serif" font-size="14.00">&gt;</text>
</g>
<!-- Blk&#45;&gt;Tel -->
<g id="edge18" class="edge">
<title>Blk&#45;&gt;Tel</title>
<path fill="none" stroke="#101010" d="M262.82,-214.89C261.2,-220.5 259.47,-226.74 258,-232.5 247.97,-271.89 243.89,-281.53 238,-321.75 232.28,-360.77 229.81,-406.33 228.75,-434.99"/>
<polygon fill="#101010" stroke="#101010" points="225.26,-434.55 228.43,-444.66 232.26,-434.78 225.26,-434.55"/>
<text xml:space="preserve" text-anchor="middle" x="244" y="-325.7" font-family="Times,serif" font-size="14.00">&gt;</text>
</g>
<!-- Blk&#45;&gt;Nano -->
<g id="edge19" class="edge">
<title>Blk&#45;&gt;Nano</title>
<path fill="none" stroke="#101010" d="M255.42,-178.23C245.72,-164.38 232.4,-144.19 223,-125.25 210.34,-99.74 199.51,-69.05 192.5,-47.23"/>
<polygon fill="#101010" stroke="#101010" points="195.89,-46.34 189.56,-37.85 189.21,-48.44 195.89,-46.34"/>
<text xml:space="preserve" text-anchor="middle" x="229" y="-102.58" font-family="Times,serif" font-size="14.00">&gt;</text>
</g>
<!-- Blk&#45;&gt;Wht -->
<g id="edge20" class="edge">
<title>Blk&#45;&gt;Wht</title>
<path fill="none" stroke="#101010" d="M258.98,-178.16C254.81,-168.03 251.31,-154.96 254,-143.25 254.57,-140.79 255.33,-138.3 256.22,-135.85"/>
<polygon fill="#101010" stroke="#101010" points="259.34,-137.44 260.12,-126.87 252.92,-134.65 259.34,-137.44"/>
<text xml:space="preserve" text-anchor="middle" x="260" y="-147.2" font-family="Times,serif" font-size="14.00">&gt;</text>
</g>
<!-- Wht&#45;&gt;Mil -->
<g id="edge25" class="edge">
<title>Wht&#45;&gt;Mil</title>
<path fill="none" stroke="#dddddd" d="M298.17,-109.84C345.09,-113.91 442.22,-128.24 504,-178.5 563.2,-226.66 586,-253.06 586,-329.38 586,-554.5 586,-554.5 586,-554.5 586,-598.44 533.87,-621.83 496.15,-633"/>
<polygon fill="#dddddd" stroke="#dddddd" points="495.62,-629.52 486.92,-635.56 497.49,-636.26 495.62,-629.52"/>
<text xml:space="preserve" text-anchor="middle" x="592" y="-370.32" font-family="Times,serif" font-size="14.00">&gt;</text>
</g>
<!-- Wht&#45;&gt;Tel -->
<g id="edge22" class="edge">
<title>Wht&#45;&gt;Tel</title>
<path fill="none" stroke="#dddddd" d="M248.09,-124.62C214.27,-150.44 152.63,-204.28 131,-267.75 109.11,-332 165.35,-402.06 201.1,-438.34"/>
<polygon fill="#dddddd" stroke="#dddddd" points="198.6,-440.79 208.17,-445.33 203.52,-435.81 198.6,-440.79"/>
<text xml:space="preserve" text-anchor="middle" x="137" y="-281.07" font-family="Times,serif" font-size="14.00">&gt;</text>
</g>
<!-- Wht&#45;&gt;Nano -->
<g id="edge23" class="edge">
<title>Wht&#45;&gt;Nano</title>
<path fill="none" stroke="#dddddd" d="M254.23,-89.43C241.43,-76.59 223.6,-58.71 209.1,-44.18"/>
<polygon fill="#dddddd" stroke="#dddddd" points="211.63,-41.75 202.09,-37.14 206.67,-46.69 211.63,-41.75"/>
<text xml:space="preserve" text-anchor="middle" x="241.29" y="-57.95" font-family="Times,serif" font-size="14.00">&gt;</text>
</g>
<!-- Wht&#45;&gt;Blk -->
<g id="edge24" class="edge">
<title>Wht&#45;&gt;Blk</title>
<path fill="none" stroke="#dddddd" d="M270.41,-125.45C270,-137.27 269.45,-153.25 268.98,-166.96"/>
<polygon fill="#dddddd" stroke="#dddddd" points="265.49,-166.64 268.64,-176.75 272.49,-166.88 265.49,-166.64"/>
<text xml:space="preserve" text-anchor="middle" x="275.77" y="-147.2" font-family="Times,serif" font-size="14.00">&gt;</text>
</g>
<!-- AI&#45;&gt;Nano -->
<g id="edge26" class="edge">
<title>AI&#45;&gt;Nano</title>
<path fill="none" stroke="#808080" d="M179.33,-267.31C180.17,-222.44 182.43,-102.63 183.46,-47.5"/>
<polygon fill="#808080" stroke="#808080" points="186.96,-47.73 183.65,-37.67 179.96,-47.6 186.96,-47.73"/>
<text xml:space="preserve" text-anchor="middle" x="187.62" y="-147.2" font-family="Times,serif" font-size="14.00">&gt;</text>
</g>
<!-- AI&#45;&gt;Blk -->
<g id="edge27" class="edge">
<title>AI&#45;&gt;Blk</title>
<path fill="none" stroke="#808080" d="M189.33,-267.6C196.32,-256.81 206.23,-242.98 217,-232.5 221.47,-228.15 226.54,-223.97 231.71,-220.1"/>
<polygon fill="#808080" stroke="#808080" points="233.63,-223.04 239.77,-214.4 229.59,-217.32 233.63,-223.04"/>
<text xml:space="preserve" text-anchor="middle" x="223" y="-236.45" font-family="Times,serif" font-size="14.00">&gt;</text>
</g>
<!-- AI&#45;&gt;Wht -->
<g id="edge28" class="edge">
<title>AI&#45;&gt;Wht</title>
<path fill="none" stroke="#808080" d="M185.64,-267.32C189.52,-257.16 194.52,-244.1 199,-232.5 208.27,-208.48 207.67,-201.11 220,-178.5 228.42,-163.06 239.76,-147.1 249.61,-134.31"/>
<polygon fill="#808080" stroke="#808080" points="252.09,-136.81 255.52,-126.79 246.59,-132.49 252.09,-136.81"/>
<text xml:space="preserve" text-anchor="middle" x="226" y="-191.82" font-family="Times,serif" font-size="14.00">&gt;</text>
</g>
<!-- Street&#45;&gt;Chem -->
<g id="edge29" class="edge">
<title>Street&#45;&gt;Chem</title>
<path fill="none" stroke="#806030" d="M386.63,-356.76C385,-344.93 382.8,-328.95 380.92,-315.25"/>
<polygon fill="#806030" stroke="#806030" points="384.4,-314.88 379.57,-305.45 377.47,-315.84 384.4,-314.88"/>
<text xml:space="preserve" text-anchor="middle" x="390.07" y="-325.7" font-family="Times,serif" font-size="14.00">&gt;</text>
</g>
<!-- Street&#45;&gt;Blk -->
<g id="edge30" class="edge">
<title>Street&#45;&gt;Blk</title>
<path fill="none" stroke="#806030" d="M371.81,-356.7C358.69,-342.99 340.61,-323.02 327,-303.75 317.17,-289.83 296.25,-251.16 282.15,-224.53"/>
<polygon fill="#806030" stroke="#806030" points="285.4,-223.2 277.65,-215.98 279.21,-226.46 285.4,-223.2"/>
<text xml:space="preserve" text-anchor="middle" x="333" y="-281.07" font-family="Times,serif" font-size="14.00">&gt;</text>
</g>
<!-- Street&#45;&gt;Wht -->
<g id="edge31" class="edge">
<title>Street&#45;&gt;Wht</title>
<path fill="none" stroke="#806030" d="M399.55,-356.66C411.14,-335.28 426.66,-298.06 415,-267.75 392.62,-209.58 338.12,-159.4 302.96,-131.56"/>
<polygon fill="#806030" stroke="#806030" points="305.28,-128.93 295.23,-125.57 300.99,-134.46 305.28,-128.93"/>
<text xml:space="preserve" text-anchor="middle" x="412.86" y="-236.45" font-family="Times,serif" font-size="14.00">&gt;</text>
</g>
<!-- Street&#45;&gt;AI -->
<g id="edge32" class="edge">
<title>Street&#45;&gt;AI</title>
<path fill="none" stroke="#806030" d="M358.16,-363.64C338.97,-357 313.86,-347.98 292,-339 266.4,-328.49 238.14,-315.42 216.28,-304.98"/>
<polygon fill="#806030" stroke="#806030" points="218,-301.92 207.47,-300.75 214.97,-308.23 218,-301.92"/>
<text xml:space="preserve" text-anchor="middle" x="298" y="-325.7" font-family="Times,serif" font-size="14.00">&gt;</text>
</g>
</g>
</svg>
