<?xml version="1.0" encoding="UTF-8" standalone="no"?>
<!DOCTYPE svg PUBLIC "-//W3C//DTD SVG 1.1//EN"
 "http://www.w3.org/Graphics/SVG/1.1/DTD/svg11.dtd">
<!-- Generated by graphviz version 14.0.2 (0)
 -->
<!-- Title: TypeChart Pages: 1 -->
<svg width="579pt" height="669pt"
 viewBox="0.00 0.00 579.00 669.00" xmlns="http://www.w3.org/2000/svg" xmlns:xlink="http://www.w3.org/1999/xlink">
<g id="graph0" class="graph" transform="scale(1 1) rotate(0) translate(4 664.75)">
<title>TypeChart</title>
<polygon fill="white" stroke="none" points="-4,4 -4,-664.75 575,-664.75 575,4 -4,4"/>
<!-- Mil -->
<g id="node1" class="node">
<title>Mil</title>
<path fill="#e00000" stroke="black" d="M294,-657.48C294,-659.28 281.9,-660.75 267,-660.75 252.1,-660.75 240,-659.28 240,-657.48 240,-657.48 240,-628.02 240,-628.02 240,-626.22 252.1,-624.75 267,-624.75 281.9,-624.75 294,-626.22 294,-628.02 294,-628.02 294,-657.48 294,-657.48"/>
<path fill="none" stroke="black" d="M294,-657.48C294,-655.67 281.9,-654.2 267,-654.2 252.1,-654.2 240,-655.67 240,-657.48"/>
<text xml:space="preserve" text-anchor="middle" x="267" y="-638.08" font-family="Times,serif" font-size="14.00">Mil</text>
</g>
<!-- Bio -->
<g id="node2" class="node">
<title>Bio</title>
<path fill="#00e000" stroke="black" d="M432,-568.23C432,-570.03 419.9,-571.5 405,-571.5 390.1,-571.5 378,-570.03 378,-568.23 378,-568.23 378,-538.77 378,-538.77 378,-536.97 390.1,-535.5 405,-535.5 419.9,-535.5 432,-536.97 432,-538.77 432,-538.77 432,-568.23 432,-568.23"/>
<path fill="none" stroke="black" d="M432,-568.23C432,-566.42 419.9,-564.95 405,-564.95 390.1,-564.95 378,-566.42 378,-568.23"/>
<text xml:space="preserve" text-anchor="middle" x="405" y="-548.83" font-family="Times,serif" font-size="14.00">Bio</text>
</g>
<!-- Mil&#45;&gt;Bio -->
<g id="edge1" class="edge">
<title>Mil&#45;&gt;Bio</title>
<path fill="none" stroke="#e00000" d="M294.49,-625.82C304.47,-619.93 315.81,-613.14 326,-606.75 341.17,-597.24 357.73,-586.37 371.74,-577.02"/>
<polygon fill="#e00000" stroke="#e00000" points="373.38,-580.13 379.74,-571.66 369.48,-574.32 373.38,-580.13"/>
<text xml:space="preserve" text-anchor="middle" x="358.3" y="-593.45" font-family="Times,serif" font-size="14.00">&gt;</text>
</g>
<!-- AI -->
<g id="node8" class="node">
<title>AI</title>
<path fill="#808080" stroke="black" d="M170,-300.48C170,-302.28 157.9,-303.75 143,-303.75 128.1,-303.75 116,-302.28 116,-300.48 116,-300.48 116,-271.02 116,-271.02 116,-269.22 128.1,-267.75 143,-267.75 157.9,-267.75 170,-269.22 170,-271.02 170,-271.02 170,-300.48 170,-300.48"/>
<path fill="none" stroke="black" d="M170,-300.48C170,-298.67 157.9,-297.2 143,-297.2 128.1,-297.2 116,-298.67 116,-300.48"/>
<text xml:space="preserve" text-anchor="middle" x="143" y="-281.07" font-family="Times,serif" font-size="14.00">AI</text>
</g>
<!-- Mil&#45;&gt;AI -->
<g id="edge2" class="edge">
<title>Mil&#45;&gt;AI</title>
<path fill="none" stroke="#e00000" d="M239.77,-637.69C198.28,-629.79 124,-608.16 124,-554.5 124,-554.5 124,-554.5 124,-374 124,-353.97 128.84,-331.94 133.63,-315.02"/>
<polygon fill="#e00000" stroke="#e00000" points="136.92,-316.25 136.45,-305.67 130.21,-314.24 136.92,-316.25"/>
<text xml:space="preserve" text-anchor="middle" x="130" y="-459.57" font-family="Times,serif" font-size="14.00">&gt;</text>
</g>
<!-- Street -->
<g id="node9" class="node">
<title>Street</title>
<path fill="#806030" stroke="black" d="M268.5,-389.73C268.5,-391.53 254.83,-393 238,-393 221.17,-393 207.5,-391.53 207.5,-389.73 207.5,-389.73 207.5,-360.27 207.5,-360.27 207.5,-358.47 221.17,-357 238,-357 254.83,-357 268.5,-358.47 268.5,-360.27 268.5,-360.27 268.5,-389.73 268.5,-389.73"/>
<path fill="none" stroke="black" d="M268.5,-389.73C268.5,-387.92 254.83,-386.45 238,-386.45 221.17,-386.45 207.5,-387.92 207.5,-389.73"/>
<text xml:space="preserve" text-anchor="middle" x="238" y="-370.32" font-family="Times,serif" font-size="14.00">Street</text>
</g>
<!-- Mil&#45;&gt;Street -->
<g id="edge3" class="edge">
<title>Mil&#45;&gt;Street</title>
<path fill="none" stroke="#e00000" d="M265.58,-624.46C262.71,-590.34 255.85,-511.94 248,-446.25 246.36,-432.53 244.24,-417.35 242.37,-404.62"/>
<polygon fill="#e00000" stroke="#e00000" points="245.84,-404.17 240.91,-394.79 238.92,-405.2 245.84,-404.17"/>
<text xml:space="preserve" text-anchor="middle" x="261.65" y="-504.2" font-family="Times,serif" font-size="14.00">&gt;</text>
</g>
<!-- Tel -->
<g id="node3" class="node">
<title>Tel</title>
<path fill="#0060e0" stroke="black" d="M239,-478.98C239,-480.78 226.9,-482.25 212,-482.25 197.1,-482.25 185,-480.78 185,-478.98 185,-478.98 185,-449.52 185,-449.52 185,-447.72 197.1,-446.25 212,-446.25 226.9,-446.25 239,-447.72 239,-449.52 239,-449.52 239,-478.98 239,-478.98"/>
<path fill="none" stroke="black" d="M239,-478.98C239,-477.17 226.9,-475.7 212,-475.7 197.1,-475.7 185,-477.17 185,-478.98"/>
<text xml:space="preserve" text-anchor="middle" x="212" y="-459.57" font-family="Times,serif" font-size="14.00">Tel</text>
</g>
<!-- Bio&#45;&gt;Tel -->
<g id="edge4" class="edge">
<title>Bio&#45;&gt;Tel</title>
<path fill="none" stroke="#00e000" d="M377.76,-540.18C344.23,-525.03 287.13,-499.21 249.48,-482.19"/>
<polygon fill="#00e000" stroke="#00e000" points="251.35,-479.2 240.8,-478.27 248.47,-485.58 251.35,-479.2"/>
<text xml:space="preserve" text-anchor="middle" x="331.79" y="-504.2" font-family="Times,serif" font-size="14.00">&gt;</text>
</g>
<!-- Blk -->
<g id="node6" class="node">
<title>Blk</title>
<path fill="#101010" stroke="black" d="M350,-211.23C350,-213.03 337.9,-214.5 323,-214.5 308.1,-214.5 296,-213.03 296,-211.23 296,-211.23 296,-181.77 296,-181.77 296,-179.97 308.1,-178.5 323,-178.5 337.9,-178.5 350,-179.97 350,-181.77 350,-181.77 350,-211.23 350,-211.23"/>
<path fill="none" stroke="black" d="M350,-211.23C350,-209.42 337.9,-207.95 323,-207.95 308.1,-207.95 296,-209.42 296,-211.23"/>
<text xml:space="preserve" text-anchor="middle" x="323" y="-191.82" font-family="Times,serif" font-size="14.00">Blk</text>
</g>
<!-- Bio&#45;&gt;Blk -->
<g id="edge5" class="edge">
<title>Bio&#45;&gt;Blk</title>
<path fill="none" stroke="#00e000" d="M408.18,-535.34C416.6,-484.76 434.98,-333.49 375,-232.5 371.15,-226.02 365.59,-220.49 359.51,-215.87"/>
<polygon fill="#00e000" stroke="#00e000" points="361.9,-213.25 351.64,-210.58 357.99,-219.06 361.9,-213.25"/>
<text xml:space="preserve" text-anchor="middle" x="422.72" y="-370.32" font-family="Times,serif" font-size="14.00">&gt;</text>
</g>
<!-- Wht -->
<g id="node7" class="node">
<title>Wht</title>
<path fill="#dddddd" stroke="black" d="M266,-121.98C266,-123.78 253.9,-125.25 239,-125.25 224.1,-125.25 212,-123.78 212,-121.98 212,-121.98 212,-92.52 212,-92.52 212,-90.72 224.1,-89.25 239,-89.25 253.9,-89.25 266,-90.72 266,-92.52 266,-92.52 266,-121.98 266,-121.98"/>
<path fill="none" stroke="black" d="M266,-121.98C266,-120.17 253.9,-118.7 239,-118.7 224.1,-118.7 212,-120.17 212,-121.98"/>
<text xml:space="preserve" text-anchor="middle" x="239" y="-102.58" font-family="Times,serif" font-size="14.00">Wht</text>
</g>
<!-- Bio&#45;&gt;Wht -->
<g id="edge6" class="edge">
<title>Bio&#45;&gt;Wht</title>
<path fill="none" stroke="#00e000" d="M422.19,-535.44C426.88,-530.06 431.59,-523.85 435,-517.5 442.7,-503.15 440.62,-497.94 445,-482.25 471.29,-388.06 537.73,-355.22 494,-267.75 452.76,-185.26 408.53,-188.2 328,-143.25 318.76,-138.1 296.68,-129.4 276.82,-121.97"/>
<polygon fill="#00e000" stroke="#00e000" points="278.12,-118.72 267.53,-118.53 275.69,-125.28 278.12,-118.72"/>
<text xml:space="preserve" text-anchor="middle" x="514.53" y="-325.7" font-family="Times,serif" font-size="14.00">&gt;</text>
</g>
<!-- Bio&#45;&gt;Street -->
<g id="edge7" class="edge">
<title>Bio&#45;&gt;Street</title>
<path fill="none" stroke="#00e000" d="M391.36,-535.12C369.39,-507.57 324.26,-452.72 281,-411 277.13,-407.27 272.91,-403.5 268.67,-399.89"/>
<polygon fill="#00e000" stroke="#00e000" points="271.14,-397.4 261.21,-393.73 266.68,-402.8 271.14,-397.4"/>
<text xml:space="preserve" text-anchor="middle" x="353.13" y="-459.57" font-family="Times,serif" font-size="14.00">&gt;</text>
</g>
<!-- Tel&#45;&gt;Mil -->
<g id="edge8" class="edge">
<title>Tel&#45;&gt;Mil</title>
<path fill="none" stroke="#0060e0" d="M216.14,-482.5C222.79,-509.41 236.76,-562.85 253,-606.75 253.83,-609 254.72,-611.33 255.62,-613.66"/>
<polygon fill="#0060e0" stroke="#0060e0" points="252.36,-614.95 259.29,-622.96 258.87,-612.38 252.36,-614.95"/>
<text xml:space="preserve" text-anchor="middle" x="246.7" y="-548.83" font-family="Times,serif" font-size="14.00">&gt;</text>
</g>
<!-- Nano -->
<g id="node4" class="node">
<title>Nano</title>
<path fill="#c0e000" stroke="black" d="M221,-32.73C221,-34.53 208.9,-36 194,-36 179.1,-36 167,-34.53 167,-32.73 167,-32.73 167,-3.27 167,-3.27 167,-1.47 179.1,0 194,0 208.9,0 221,-1.47 221,-3.27 221,-3.27 221,-32.73 221,-32.73"/>
<path fill="none" stroke="black" d="M221,-32.73C221,-30.92 208.9,-29.45 194,-29.45 179.1,-29.45 167,-30.92 167,-32.73"/>
<text xml:space="preserve" text-anchor="middle" x="194" y="-13.32" font-family="Times,serif" font-size="14.00">Nano</text>
</g>
<!-- Tel&#45;&gt;Nano -->
<g id="edge9" class="edge">
<title>Tel&#45;&gt;Nano</title>
<path fill="none" stroke="#0060e0" d="M184.7,-456.65C155.17,-449.24 110.27,-437.1 95,-428.25 65.83,-411.34 40,-409.72 40,-376 40,-376 40,-376 40,-106.25 40,-53.25 109.91,-32.06 155.52,-23.88"/>
<polygon fill="#0060e0" stroke="#0060e0" points="156.03,-27.34 165.33,-22.27 154.89,-20.43 156.03,-27.34"/>
<text xml:space="preserve" text-anchor="middle" x="46" y="-236.45" font-family="Times,serif" font-size="14.00">&gt;</text>
</g>
<!-- Tel&#45;&gt;AI -->
<g id="edge10" class="edge">
<title>Tel&#45;&gt;AI</title>
<path fill="none" stroke="#0060e0" d="M205.26,-446.01C193.3,-415.43 168.3,-351.46 153.88,-314.57"/>
<polygon fill="#0060e0" stroke="#0060e0" points="157.22,-313.51 150.32,-305.47 150.7,-316.06 157.22,-313.51"/>
<text xml:space="preserve" text-anchor="middle" x="190.36" y="-370.32" font-family="Times,serif" font-size="14.00">&gt;</text>
</g>
<!-- Tel&#45;&gt;Street -->
<g id="edge11" class="edge">
<title>Tel&#45;&gt;Street</title>
<path fill="none" stroke="#0060e0" d="M217.14,-446.01C220.7,-434.06 225.52,-417.88 229.63,-404.08"/>
<polygon fill="#0060e0" stroke="#0060e0" points="232.94,-405.24 232.44,-394.65 226.23,-403.24 232.94,-405.24"/>
<text xml:space="preserve" text-anchor="middle" x="233.33" y="-414.95" font-family="Times,serif" font-size="14.00">&gt;</text>
</g>
<!-- Nano&#45;&gt;Bio -->
<g id="edge12" class="edge">
<title>Nano&#45;&gt;Bio</title>
<path fill="none" stroke="#c0e000" d="M221.43,-19.68C306.32,-22.54 559,-36.86 559,-106.25 559,-331.38 559,-331.38 559,-331.38 559,-426.79 515.36,-446.16 452,-517.5 448.21,-521.76 443.83,-525.84 439.29,-529.6"/>
<polygon fill="#c0e000" stroke="#c0e000" points="437.45,-526.6 431.7,-535.5 441.74,-532.13 437.45,-526.6"/>
<text xml:space="preserve" text-anchor="middle" x="565" y="-281.07" font-family="Times,serif" font-size="14.00">&gt;</text>
</g>
<!-- Nano&#45;&gt;Nano -->
<g id="edge13" class="edge">
<title>Nano&#45;&gt;Nano</title>
<path fill="none" stroke="#c0e000" d="M221.24,-26.36C231.02,-26.54 239,-23.75 239,-18 239,-14.76 236.48,-12.47 232.53,-11.11"/>
<polygon fill="#c0e000" stroke="#c0e000" points="233.11,-7.65 222.74,-9.84 232.21,-14.6 233.11,-7.65"/>
<text xml:space="preserve" text-anchor="middle" x="245" y="-13.32" font-family="Times,serif" font-size="14.00">&gt;</text>
</g>
<!-- Nano&#45;&gt;Street -->
<g id="edge14" class="edge">
<title>Nano&#45;&gt;Street</title>
<path fill="none" stroke="#c0e000" d="M188.12,-36.41C177.35,-70.75 156.72,-149.5 170,-214.5 179.97,-263.31 205.47,-315.67 222.25,-346.59"/>
<polygon fill="#c0e000" stroke="#c0e000" points="219.15,-348.21 227.05,-355.27 225.27,-344.82 219.15,-348.21"/>
<text xml:space="preserve" text-anchor="middle" x="176" y="-191.82" font-family="Times,serif" font-size="14.00">&gt;</text>
</g>
<!-- Chem -->
<g id="node5" class="node">
<title>Chem</title>
<path fill="#8000e0" stroke="black" d="M484.62,-300.48C484.62,-302.28 471.79,-303.75 456,-303.75 440.21,-303.75 427.38,-302.28 427.38,-300.48 427.38,-300.48 427.38,-271.02 427.38,-271.02 427.38,-269.22 440.21,-267.75 456,-267.75 471.79,-267.75 484.62,-269.22 484.62,-271.02 484.62,-271.02 484.62,-300.48 484.62,-300.48"/>
<path fill="none" stroke="black" d="M484.62,-300.48C484.62,-298.67 471.79,-297.2 456,-297.2 440.21,-297.2 427.38,-298.67 427.38,-300.48"/>
<text xml:space="preserve" text-anchor="middle" x="456" y="-281.07" font-family="Times,serif" font-size="14.00">Chem</text>
</g>
<!-- Chem&#45;&gt;Mil -->
<g id="edge15" class="edge">
<title>Chem&#45;&gt;Mil</title>
<path fill="none" stroke="#8000e0" d="M465.62,-304.03C491.12,-350.88 557.06,-479.39 535,-517.5 487.21,-600.06 367.38,-628.24 305.43,-637.48"/>
<polygon fill="#8000e0" stroke="#8000e0" points="305.13,-633.99 295.7,-638.83 306.09,-640.92 305.13,-633.99"/>
<text xml:space="preserve" text-anchor="middle" x="544.24" y="-459.57" font-family="Times,serif" font-size="14.00">&gt;</text>
</g>
<!-- Chem&#45;&gt;Bio -->
<g id="edge16" class="edge">
<title>Chem&#45;&gt;Bio</title>
<path fill="none" stroke="#8000e0" d="M454.54,-304.11C450.99,-342.93 440.57,-439.48 419,-517.5 418.36,-519.82 417.61,-522.19 416.81,-524.55"/>
<polygon fill="#8000e0" stroke="#8000e0" points="413.54,-523.31 413.29,-533.9 420.09,-525.77 413.54,-523.31"/>
<text xml:space="preserve" text-anchor="middle" x="447.15" y="-414.95" font-family="Times,serif" font-size="14.00">&gt;</text>
</g>
<!-- Blk&#45;&gt;Mil -->
<g id="edge20" class="edge">
<title>Blk&#45;&gt;Mil</title>
<path fill="none" stroke="#101010" d="M330.77,-214.98C332.86,-220.48 334.86,-226.65 336,-232.5 403.67,-580.91 354.82,-448.54 342,-482.25 338.2,-492.25 331.69,-491.19 326,-500.25 303,-536.86 285.44,-583.98 275.67,-613.53"/>
<polygon fill="#101010" stroke="#101010" points="272.4,-612.28 272.66,-622.87 279.06,-614.42 272.4,-612.28"/>
<text xml:space="preserve" text-anchor="middle" x="374.83" y="-414.95" font-family="Times,serif" font-size="14.00">&gt;</text>
</g>
<!-- Blk&#45;&gt;Tel -->
<g id="edge17" class="edge">
<title>Blk&#45;&gt;Tel</title>
<path fill="none" stroke="#101010" d="M323.13,-214.92C322.87,-242.06 320.49,-295.81 307,-339 294.53,-378.94 262.66,-415.81 239.25,-438.84"/>
<polygon fill="#101010" stroke="#101010" points="236.96,-436.19 232.16,-445.63 241.8,-441.24 236.96,-436.19"/>
<text xml:space="preserve" text-anchor="middle" x="317.69" y="-325.7" font-family="Times,serif" font-size="14.00">&gt;</text>
</g>
<!-- Blk&#45;&gt;Nano -->
<g id="edge18" class="edge">
<title>Blk&#45;&gt;Nano</title>
<path fill="none" stroke="#101010" d="M328.59,-178.44C331.08,-167.93 332.55,-154.38 328,-143.25 309.34,-97.61 263.95,-61.59 231.16,-40.33"/>
<polygon fill="#101010" stroke="#101010" points="233.04,-37.38 222.71,-35.02 229.32,-43.31 233.04,-37.38"/>
<text xml:space="preserve" text-anchor="middle" x="324.21" y="-102.58" font-family="Times,serif" font-size="14.00">&gt;</text>
</g>
<!-- Blk&#45;&gt;Wht -->
<g id="edge19" class="edge">
<title>Blk&#45;&gt;Wht</title>
<path fill="none" stroke="#101010" d="M318.9,-178.41C315.56,-167.37 309.9,-153.25 301,-143.25 294.19,-135.61 285.3,-129.24 276.38,-124.13"/>
<polygon fill="#101010" stroke="#101010" points="278.23,-121.16 267.75,-119.6 274.98,-127.35 278.23,-121.16"/>
<text xml:space="preserve" text-anchor="middle" x="317.85" y="-147.2" font-family="Times,serif" font-size="14.00">&gt;</text>
</g>
<!-- Wht&#45;&gt;Mil -->
<g id="edge24" class="edge">
<title>Wht&#45;&gt;Mil</title>
<path fill="none" stroke="#dddddd" d="M211.58,-112.3C148.81,-122.36 0,-150.89 0,-195.5 0,-554.5 0,-554.5 0,-554.5 0,-602.06 155.02,-627.8 228.82,-637.36"/>
<polygon fill="#dddddd" stroke="#dddddd" points="228.07,-640.79 238.43,-638.56 228.94,-633.85 228.07,-640.79"/>
<text xml:space="preserve" text-anchor="middle" x="6" y="-370.32" font-family="Times,serif" font-size="14.00">&gt;</text>
</g>
<!-- Wht&#45;&gt;Tel -->
<g id="edge21" class="edge">
<title>Wht&#45;&gt;Tel</title>
<path fill="none" stroke="#dddddd" d="M212.35,-124.24C168.51,-151.49 86,-207.16 86,-240.12 86,-376 86,-376 86,-376 86,-419.16 136.59,-442.66 173.66,-454.08"/>
<polygon fill="#dddddd" stroke="#dddddd" points="172.63,-457.42 183.21,-456.83 174.56,-450.7 172.63,-457.42"/>
<text xml:space="preserve" text-anchor="middle" x="92" y="-281.07" font-family="Times,serif" font-size="14.00">&gt;</text>
</g>
<!-- Wht&#45;&gt;Nano -->
<g id="edge22" class="edge">
<title>Wht&#45;&gt;Nano</title>
<path fill="none" stroke="#dddddd" d="M230.11,-89.01C223.82,-76.82 215.27,-60.23 208.06,-46.26"/>
<polygon fill="#dddddd" stroke="#dddddd" points="211.26,-44.83 203.57,-37.55 205.04,-48.04 211.26,-44.83"/>
<text xml:space="preserve" text-anchor="middle" x="226.53" y="-57.95" font-family="Times,serif" font-size="14.00">&gt;</text>
</g>
<!-- Wht&#45;&gt;Blk -->
<g id="edge23" class="edge">
<title>Wht&#45;&gt;Blk</title>
<path fill="none" stroke="#dddddd" d="M253.9,-125.51C262.98,-135.85 274.93,-149.14 286,-160.5 289.33,-163.92 292.91,-167.45 296.47,-170.9"/>
<polygon fill="#dddddd" stroke="#dddddd" points="293.9,-173.29 303.56,-177.65 298.73,-168.22 293.9,-173.29"/>
<text xml:space="preserve" text-anchor="middle" x="292" y="-147.2" font-family="Times,serif" font-size="14.00">&gt;</text>
</g>
<!-- AI&#45;&gt;Nano -->
<g id="edge25" class="edge">
<title>AI&#45;&gt;Nano</title>
<path fill="none" stroke="#808080" d="M139.08,-267.51C130.91,-227.27 115.77,-125.2 154,-54 156.1,-50.09 158.83,-46.41 161.87,-43.02"/>
<polygon fill="#808080" stroke="#808080" points="164.09,-45.73 168.81,-36.25 159.2,-40.72 164.09,-45.73"/>
<text xml:space="preserve" text-anchor="middle" x="136.2" y="-147.2" font-family="Times,serif" font-size="14.00">&gt;</text>
</g>
<!-- AI&#45;&gt;Blk -->
<g id="edge26" class="edge">
<title>AI&#45;&gt;Blk</title>
<path fill="none" stroke="#808080" d="M170.1,-278.41C192.12,-272.65 223.57,-263.03 249,-249.75 260.33,-243.84 261.62,-239.95 272,-232.5 277.67,-228.43 283.74,-224.17 289.66,-220.09"/>
<polygon fill="#808080" stroke="#808080" points="291.22,-223.26 297.48,-214.71 287.26,-217.49 291.22,-223.26"/>
<text xml:space="preserve" text-anchor="middle" x="278" y="-236.45" font-family="Times,serif" font-size="14.00">&gt;</text>
</g>
<!-- AI&#45;&gt;Wht -->
<g id="edge27" class="edge">
<title>AI&#45;&gt;Wht</title>
<path fill="none" stroke="#808080" d="M154.21,-267.39C163.15,-253.32 175.81,-232.89 186,-214.5 200.62,-188.12 215.83,-157.2 226.19,-135.53"/>
<polygon fill="#808080" stroke="#808080" points="229.22,-137.32 230.35,-126.78 222.9,-134.31 229.22,-137.32"/>
<text xml:space="preserve" text-anchor="middle" x="210.66" y="-191.82" font-family="Times,serif" font-size="14.00">&gt;</text>
</g>
<!-- Street&#45;&gt;Chem -->
<g id="edge28" class="edge">
<title>Street&#45;&gt;Chem</title>
<path fill="none" stroke="#806030" d="M254.9,-356.66C268.27,-343.3 286.12,-326.35 295,-321.75 333.17,-301.98 382.01,-293.36 415.83,-289.61"/>
<polygon fill="#806030" stroke="#806030" points="416.02,-293.11 425.63,-288.63 415.33,-286.14 416.02,-293.11"/>
<text xml:space="preserve" text-anchor="middle" x="301" y="-325.7" font-family="Times,serif" font-size="14.00">&gt;</text>
</g>
<!-- Street&#45;&gt;Blk -->
<g id="edge29" class="edge">
<title>Street&#45;&gt;Blk</title>
<path fill="none" stroke="#806030" d="M246.3,-356.76C261.09,-326.04 292.1,-261.65 309.83,-224.85"/>
<polygon fill="#806030" stroke="#806030" points="312.82,-226.71 314,-216.18 306.51,-223.67 312.82,-226.71"/>
<text xml:space="preserve" text-anchor="middle" x="294.95" y="-281.07" font-family="Times,serif" font-size="14.00">&gt;</text>
</g>
<!-- Street&#45;&gt;Wht -->
<g id="edge30" class="edge">
<title>Street&#45;&gt;Wht</title>
<path fill="none" stroke="#806030" d="M236.97,-356.58C235.5,-329.87 233.1,-277.22 234,-232.5 234.66,-199.67 236.3,-161.99 237.52,-136.81"/>
<polygon fill="#806030" stroke="#806030" points="241.01,-137.2 238.01,-127.04 234.02,-136.86 241.01,-137.2"/>
<text xml:space="preserve" text-anchor="middle" x="240" y="-236.45" font-family="Times,serif" font-size="14.00">&gt;</text>
</g>
<!-- Street&#45;&gt;AI -->
<g id="edge31" class="edge">
<title>Street&#45;&gt;AI</title>
<path fill="none" stroke="#806030" d="M209.25,-357.85C200.7,-352.4 191.59,-345.93 184,-339 175.62,-331.35 167.63,-321.86 160.96,-313.07"/>
<polygon fill="#806030" stroke="#806030" points="163.9,-311.17 155.18,-305.16 158.25,-315.3 163.9,-311.17"/>
<text xml:space="preserve" text-anchor="middle" x="190" y="-325.7" font-family="Times,serif" font-size="14.00">&gt;</text>
</g>
</g>
</svg>
